%FSLAX46Y46*%
%MOMM*%
%TF.FileFunction,Profile,NP*%
%TF.FilePolarity,Positive*%
%TF.SameCoordinates,Original*%
%TF.CreationDate,2026-06-01T00:00:00Z*%
G04 TP-CAN-2I real copper - generated by generate_pcb.py*
G01*
G75*
%ADD10C,0.12000*%
D10*
X3000000Y0D02*
X67000000Y0D01*
X70000000Y3000000D02*
X70000000Y47000000D01*
X67000000Y50000000D02*
X3000000Y50000000D01*
X0Y47000000D02*
X0Y3000000D01*
X67000000Y0D02*
X67776457Y102223D01*
X67776457Y102223D02*
X68500000Y401924D01*
X68500000Y401924D02*
X69121320Y878680D01*
X69121320Y878680D02*
X69598076Y1500000D01*
X69598076Y1500000D02*
X69897777Y2223543D01*
X69897777Y2223543D02*
X70000000Y3000000D01*
X70000000Y47000000D02*
X69897777Y47776457D01*
X69897777Y47776457D02*
X69598076Y48500000D01*
X69598076Y48500000D02*
X69121320Y49121320D01*
X69121320Y49121320D02*
X68500000Y49598076D01*
X68500000Y49598076D02*
X67776457Y49897777D01*
X67776457Y49897777D02*
X67000000Y50000000D01*
X3000000Y50000000D02*
X2223543Y49897777D01*
X2223543Y49897777D02*
X1500000Y49598076D01*
X1500000Y49598076D02*
X878680Y49121320D01*
X878680Y49121320D02*
X401924Y48500000D01*
X401924Y48500000D02*
X102223Y47776457D01*
X102223Y47776457D02*
X0Y47000000D01*
X0Y3000000D02*
X102223Y2223543D01*
X102223Y2223543D02*
X401924Y1500000D01*
X401924Y1500000D02*
X878680Y878680D01*
X878680Y878680D02*
X1500000Y401924D01*
X1500000Y401924D02*
X2223543Y102223D01*
X2223543Y102223D02*
X3000000Y0D01*
X57300000Y8500000D02*
X58700000Y8500000D01*
X58700000Y8500000D02*
X58700000Y15500000D01*
X58700000Y15500000D02*
X57300000Y15500000D01*
X57300000Y15500000D02*
X57300000Y8500000D01*
X57300000Y29500000D02*
X58700000Y29500000D01*
X58700000Y29500000D02*
X58700000Y36500000D01*
X58700000Y36500000D02*
X57300000Y36500000D01*
X57300000Y36500000D02*
X57300000Y29500000D01*
M02*
