M48
;FORMAT={-:-/ absolute / metric / decimal}
;TP-CAN-2I PTH plated drill
METRIC,TZ
T1C0.300
T2C0.900
T3C1.000
%
G90
G05
T1
X48540Y18000
X49460Y18000
X48540Y22000
X49460Y22000
X48540Y26000
X49460Y26000
X35540Y24000
X36460Y24000
X38540Y9000
X39460Y9000
X48540Y13000
X49460Y13000
X38540Y35000
X39460Y35000
X48540Y31000
X49460Y31000
X7540Y25000
X8460Y25000
X41540Y22000
X42460Y22000
X53540Y9000
X54460Y9000
X53540Y40000
X54460Y40000
X6200Y36000
X7800Y36000
X39200Y38000
X40800Y38000
X54200Y14000
X55800Y14000
X54200Y35000
X55800Y35000
X21000Y15500
X21000Y18500
X21000Y21500
X24000Y15500
X24000Y18500
X24000Y21500
X27000Y15500
X27000Y18500
X27000Y21500
X14000Y38000
X15600Y10880
X15600Y9610
X41300Y13000
X46700Y13000
X41300Y31000
X46700Y31000
X61600Y13905
X61600Y10095
X54400Y11365
X61600Y11365
X61600Y34905
X61600Y31095
X54400Y32365
X61600Y32365
X2500Y2500
X2500Y8500
X2500Y14500
X2500Y20500
X2500Y32500
X8500Y2500
X14500Y2500
X20500Y2500
X26500Y2500
X32500Y2500
X38500Y14500
X38500Y26500
X38500Y32500
X44500Y20500
X50500Y14500
X50500Y20500
X50500Y32500
X62500Y2500
X62500Y20500
X62500Y26500
X62500Y44500
X68500Y2500
X68500Y8500
X68500Y20500
X68500Y26500
X68500Y32500
X68500Y44500
T2
X51000Y2690
X51000Y5230
X51000Y7770
X51000Y10310
X51000Y39190
X51000Y41730
X51000Y44270
X51000Y46810
X-320Y28000
X8320Y28000
X-320Y29600
X8320Y29600
T3
X37810Y34000
X35270Y34000
X32730Y34000
X30190Y34000
X63540Y8000
X61000Y8000
X58460Y8000
X63540Y38000
X61000Y38000
X58460Y38000
X38500Y38500
X38500Y41500
X38500Y44500
X38500Y47500
X38500Y50500
X38500Y53500
X41500Y38500
X41500Y41500
X41500Y44500
X41500Y47500
X41500Y50500
X41500Y53500
M30
