%FSLAX46Y46*%
%MOMM*%
%TF.FileFunction,Copper,L3,Inr*%
%TF.FilePolarity,Positive*%
%TF.SameCoordinates,Original*%
%TF.CreationDate,2026-06-01T00:00:00Z*%
G04 TP-CAN-2I real copper - generated by generate_pcb.py*
G01*
G75*
%ADD10C,1.20000*%
%ADD11C,0.60000*%
G36*
X500000Y500000D02*
G01X52500000Y500000D01*
G01X52500000Y29000000D01*
G01X500000Y29000000D01*
X500000Y500000D01*
G37*
G36*
X500000Y31000000D02*
G01X52500000Y31000000D01*
G01X52500000Y49500000D01*
G01X500000Y49500000D01*
X500000Y31000000D01*
G37*
G36*
X59500000Y500000D02*
G01X69500000Y500000D01*
G01X69500000Y22000000D01*
G01X59500000Y22000000D01*
X59500000Y500000D01*
G37*
G36*
X59500000Y26000000D02*
G01X69500000Y26000000D01*
G01X69500000Y49500000D01*
G01X59500000Y49500000D01*
X59500000Y26000000D01*
G37*
%LPC*%
G36*
X38610000Y34000000D02*
G01X38594628Y34156072D01*
G01X38549104Y34306147D01*
G01X38475176Y34444456D01*
G01X38375685Y34565685D01*
G01X38254456Y34665176D01*
G01X38116147Y34739104D01*
G01X37966072Y34784628D01*
G01X37810000Y34800000D01*
G01X37653928Y34784628D01*
G01X37503853Y34739104D01*
G01X37365544Y34665176D01*
G01X37244315Y34565685D01*
G01X37144824Y34444456D01*
G01X37070896Y34306147D01*
G01X37025372Y34156072D01*
G01X37010000Y34000000D01*
G01X37025372Y33843928D01*
G01X37070896Y33693853D01*
G01X37144824Y33555544D01*
G01X37244315Y33434315D01*
G01X37365544Y33334824D01*
G01X37503853Y33260896D01*
G01X37653928Y33215372D01*
G01X37810000Y33200000D01*
G01X37966072Y33215372D01*
G01X38116147Y33260896D01*
G01X38254456Y33334824D01*
G01X38375685Y33434315D01*
G01X38475176Y33555544D01*
G01X38549104Y33693853D01*
G01X38594628Y33843928D01*
X38610000Y34000000D01*
G37*
G36*
X36070000Y34000000D02*
G01X36054628Y34156072D01*
G01X36009104Y34306147D01*
G01X35935176Y34444456D01*
G01X35835685Y34565685D01*
G01X35714456Y34665176D01*
G01X35576147Y34739104D01*
G01X35426072Y34784628D01*
G01X35270000Y34800000D01*
G01X35113928Y34784628D01*
G01X34963853Y34739104D01*
G01X34825544Y34665176D01*
G01X34704315Y34565685D01*
G01X34604824Y34444456D01*
G01X34530896Y34306147D01*
G01X34485372Y34156072D01*
G01X34470000Y34000000D01*
G01X34485372Y33843928D01*
G01X34530896Y33693853D01*
G01X34604824Y33555544D01*
G01X34704315Y33434315D01*
G01X34825544Y33334824D01*
G01X34963853Y33260896D01*
G01X35113928Y33215372D01*
G01X35270000Y33200000D01*
G01X35426072Y33215372D01*
G01X35576147Y33260896D01*
G01X35714456Y33334824D01*
G01X35835685Y33434315D01*
G01X35935176Y33555544D01*
G01X36009104Y33693853D01*
G01X36054628Y33843928D01*
X36070000Y34000000D01*
G37*
G36*
X33530000Y34000000D02*
G01X33514628Y34156072D01*
G01X33469104Y34306147D01*
G01X33395176Y34444456D01*
G01X33295685Y34565685D01*
G01X33174456Y34665176D01*
G01X33036147Y34739104D01*
G01X32886072Y34784628D01*
G01X32730000Y34800000D01*
G01X32573928Y34784628D01*
G01X32423853Y34739104D01*
G01X32285544Y34665176D01*
G01X32164315Y34565685D01*
G01X32064824Y34444456D01*
G01X31990896Y34306147D01*
G01X31945372Y34156072D01*
G01X31930000Y34000000D01*
G01X31945372Y33843928D01*
G01X31990896Y33693853D01*
G01X32064824Y33555544D01*
G01X32164315Y33434315D01*
G01X32285544Y33334824D01*
G01X32423853Y33260896D01*
G01X32573928Y33215372D01*
G01X32730000Y33200000D01*
G01X32886072Y33215372D01*
G01X33036147Y33260896D01*
G01X33174456Y33334824D01*
G01X33295685Y33434315D01*
G01X33395176Y33555544D01*
G01X33469104Y33693853D01*
G01X33514628Y33843928D01*
X33530000Y34000000D01*
G37*
G36*
X30990000Y34000000D02*
G01X30974628Y34156072D01*
G01X30929104Y34306147D01*
G01X30855176Y34444456D01*
G01X30755685Y34565685D01*
G01X30634456Y34665176D01*
G01X30496147Y34739104D01*
G01X30346072Y34784628D01*
G01X30190000Y34800000D01*
G01X30033928Y34784628D01*
G01X29883853Y34739104D01*
G01X29745544Y34665176D01*
G01X29624315Y34565685D01*
G01X29524824Y34444456D01*
G01X29450896Y34306147D01*
G01X29405372Y34156072D01*
G01X29390000Y34000000D01*
G01X29405372Y33843928D01*
G01X29450896Y33693853D01*
G01X29524824Y33555544D01*
G01X29624315Y33434315D01*
G01X29745544Y33334824D01*
G01X29883853Y33260896D01*
G01X30033928Y33215372D01*
G01X30190000Y33200000D01*
G01X30346072Y33215372D01*
G01X30496147Y33260896D01*
G01X30634456Y33334824D01*
G01X30755685Y33434315D01*
G01X30855176Y33555544D01*
G01X30929104Y33693853D01*
G01X30974628Y33843928D01*
X30990000Y34000000D01*
G37*
G36*
X51750000Y2690000D02*
G01X51735589Y2836318D01*
G01X51692910Y2977013D01*
G01X51623602Y3106678D01*
G01X51530330Y3220330D01*
G01X51416678Y3313602D01*
G01X51287013Y3382910D01*
G01X51146318Y3425589D01*
G01X51000000Y3440000D01*
G01X50853682Y3425589D01*
G01X50712987Y3382910D01*
G01X50583322Y3313602D01*
G01X50469670Y3220330D01*
G01X50376398Y3106678D01*
G01X50307090Y2977013D01*
G01X50264411Y2836318D01*
G01X50250000Y2690000D01*
G01X50264411Y2543682D01*
G01X50307090Y2402987D01*
G01X50376398Y2273322D01*
G01X50469670Y2159670D01*
G01X50583322Y2066398D01*
G01X50712987Y1997090D01*
G01X50853682Y1954411D01*
G01X51000000Y1940000D01*
G01X51146318Y1954411D01*
G01X51287013Y1997090D01*
G01X51416678Y2066398D01*
G01X51530330Y2159670D01*
G01X51623602Y2273322D01*
G01X51692910Y2402987D01*
G01X51735589Y2543682D01*
X51750000Y2690000D01*
G37*
G36*
X51750000Y5230000D02*
G01X51735589Y5376318D01*
G01X51692910Y5517013D01*
G01X51623602Y5646678D01*
G01X51530330Y5760330D01*
G01X51416678Y5853602D01*
G01X51287013Y5922910D01*
G01X51146318Y5965589D01*
G01X51000000Y5980000D01*
G01X50853682Y5965589D01*
G01X50712987Y5922910D01*
G01X50583322Y5853602D01*
G01X50469670Y5760330D01*
G01X50376398Y5646678D01*
G01X50307090Y5517013D01*
G01X50264411Y5376318D01*
G01X50250000Y5230000D01*
G01X50264411Y5083682D01*
G01X50307090Y4942987D01*
G01X50376398Y4813322D01*
G01X50469670Y4699670D01*
G01X50583322Y4606398D01*
G01X50712987Y4537090D01*
G01X50853682Y4494411D01*
G01X51000000Y4480000D01*
G01X51146318Y4494411D01*
G01X51287013Y4537090D01*
G01X51416678Y4606398D01*
G01X51530330Y4699670D01*
G01X51623602Y4813322D01*
G01X51692910Y4942987D01*
G01X51735589Y5083682D01*
X51750000Y5230000D01*
G37*
G36*
X51750000Y7770000D02*
G01X51735589Y7916318D01*
G01X51692910Y8057013D01*
G01X51623602Y8186678D01*
G01X51530330Y8300330D01*
G01X51416678Y8393602D01*
G01X51287013Y8462910D01*
G01X51146318Y8505589D01*
G01X51000000Y8520000D01*
G01X50853682Y8505589D01*
G01X50712987Y8462910D01*
G01X50583322Y8393602D01*
G01X50469670Y8300330D01*
G01X50376398Y8186678D01*
G01X50307090Y8057013D01*
G01X50264411Y7916318D01*
G01X50250000Y7770000D01*
G01X50264411Y7623682D01*
G01X50307090Y7482987D01*
G01X50376398Y7353322D01*
G01X50469670Y7239670D01*
G01X50583322Y7146398D01*
G01X50712987Y7077090D01*
G01X50853682Y7034411D01*
G01X51000000Y7020000D01*
G01X51146318Y7034411D01*
G01X51287013Y7077090D01*
G01X51416678Y7146398D01*
G01X51530330Y7239670D01*
G01X51623602Y7353322D01*
G01X51692910Y7482987D01*
G01X51735589Y7623682D01*
X51750000Y7770000D01*
G37*
G36*
X51750000Y10310000D02*
G01X51735589Y10456318D01*
G01X51692910Y10597013D01*
G01X51623602Y10726678D01*
G01X51530330Y10840330D01*
G01X51416678Y10933602D01*
G01X51287013Y11002910D01*
G01X51146318Y11045589D01*
G01X51000000Y11060000D01*
G01X50853682Y11045589D01*
G01X50712987Y11002910D01*
G01X50583322Y10933602D01*
G01X50469670Y10840330D01*
G01X50376398Y10726678D01*
G01X50307090Y10597013D01*
G01X50264411Y10456318D01*
G01X50250000Y10310000D01*
G01X50264411Y10163682D01*
G01X50307090Y10022987D01*
G01X50376398Y9893322D01*
G01X50469670Y9779670D01*
G01X50583322Y9686398D01*
G01X50712987Y9617090D01*
G01X50853682Y9574411D01*
G01X51000000Y9560000D01*
G01X51146318Y9574411D01*
G01X51287013Y9617090D01*
G01X51416678Y9686398D01*
G01X51530330Y9779670D01*
G01X51623602Y9893322D01*
G01X51692910Y10022987D01*
G01X51735589Y10163682D01*
X51750000Y10310000D01*
G37*
G36*
X51750000Y41730000D02*
G01X51735589Y41876318D01*
G01X51692910Y42017013D01*
G01X51623602Y42146678D01*
G01X51530330Y42260330D01*
G01X51416678Y42353602D01*
G01X51287013Y42422910D01*
G01X51146318Y42465589D01*
G01X51000000Y42480000D01*
G01X50853682Y42465589D01*
G01X50712987Y42422910D01*
G01X50583322Y42353602D01*
G01X50469670Y42260330D01*
G01X50376398Y42146678D01*
G01X50307090Y42017013D01*
G01X50264411Y41876318D01*
G01X50250000Y41730000D01*
G01X50264411Y41583682D01*
G01X50307090Y41442987D01*
G01X50376398Y41313322D01*
G01X50469670Y41199670D01*
G01X50583322Y41106398D01*
G01X50712987Y41037090D01*
G01X50853682Y40994411D01*
G01X51000000Y40980000D01*
G01X51146318Y40994411D01*
G01X51287013Y41037090D01*
G01X51416678Y41106398D01*
G01X51530330Y41199670D01*
G01X51623602Y41313322D01*
G01X51692910Y41442987D01*
G01X51735589Y41583682D01*
X51750000Y41730000D01*
G37*
G36*
X51750000Y44270000D02*
G01X51735589Y44416318D01*
G01X51692910Y44557013D01*
G01X51623602Y44686678D01*
G01X51530330Y44800330D01*
G01X51416678Y44893602D01*
G01X51287013Y44962910D01*
G01X51146318Y45005589D01*
G01X51000000Y45020000D01*
G01X50853682Y45005589D01*
G01X50712987Y44962910D01*
G01X50583322Y44893602D01*
G01X50469670Y44800330D01*
G01X50376398Y44686678D01*
G01X50307090Y44557013D01*
G01X50264411Y44416318D01*
G01X50250000Y44270000D01*
G01X50264411Y44123682D01*
G01X50307090Y43982987D01*
G01X50376398Y43853322D01*
G01X50469670Y43739670D01*
G01X50583322Y43646398D01*
G01X50712987Y43577090D01*
G01X50853682Y43534411D01*
G01X51000000Y43520000D01*
G01X51146318Y43534411D01*
G01X51287013Y43577090D01*
G01X51416678Y43646398D01*
G01X51530330Y43739670D01*
G01X51623602Y43853322D01*
G01X51692910Y43982987D01*
G01X51735589Y44123682D01*
X51750000Y44270000D01*
G37*
G36*
X51750000Y46810000D02*
G01X51735589Y46956318D01*
G01X51692910Y47097013D01*
G01X51623602Y47226678D01*
G01X51530330Y47340330D01*
G01X51416678Y47433602D01*
G01X51287013Y47502910D01*
G01X51146318Y47545589D01*
G01X51000000Y47560000D01*
G01X50853682Y47545589D01*
G01X50712987Y47502910D01*
G01X50583322Y47433602D01*
G01X50469670Y47340330D01*
G01X50376398Y47226678D01*
G01X50307090Y47097013D01*
G01X50264411Y46956318D01*
G01X50250000Y46810000D01*
G01X50264411Y46663682D01*
G01X50307090Y46522987D01*
G01X50376398Y46393322D01*
G01X50469670Y46279670D01*
G01X50583322Y46186398D01*
G01X50712987Y46117090D01*
G01X50853682Y46074411D01*
G01X51000000Y46060000D01*
G01X51146318Y46074411D01*
G01X51287013Y46117090D01*
G01X51416678Y46186398D01*
G01X51530330Y46279670D01*
G01X51623602Y46393322D01*
G01X51692910Y46522987D01*
G01X51735589Y46663682D01*
X51750000Y46810000D01*
G37*
G36*
X64340000Y8000000D02*
G01X64324628Y8156072D01*
G01X64279104Y8306147D01*
G01X64205176Y8444456D01*
G01X64105685Y8565685D01*
G01X63984456Y8665176D01*
G01X63846147Y8739104D01*
G01X63696072Y8784628D01*
G01X63540000Y8800000D01*
G01X63383928Y8784628D01*
G01X63233853Y8739104D01*
G01X63095544Y8665176D01*
G01X62974315Y8565685D01*
G01X62874824Y8444456D01*
G01X62800896Y8306147D01*
G01X62755372Y8156072D01*
G01X62740000Y8000000D01*
G01X62755372Y7843928D01*
G01X62800896Y7693853D01*
G01X62874824Y7555544D01*
G01X62974315Y7434315D01*
G01X63095544Y7334824D01*
G01X63233853Y7260896D01*
G01X63383928Y7215372D01*
G01X63540000Y7200000D01*
G01X63696072Y7215372D01*
G01X63846147Y7260896D01*
G01X63984456Y7334824D01*
G01X64105685Y7434315D01*
G01X64205176Y7555544D01*
G01X64279104Y7693853D01*
G01X64324628Y7843928D01*
X64340000Y8000000D01*
G37*
G36*
X61800000Y8000000D02*
G01X61784628Y8156072D01*
G01X61739104Y8306147D01*
G01X61665176Y8444456D01*
G01X61565685Y8565685D01*
G01X61444456Y8665176D01*
G01X61306147Y8739104D01*
G01X61156072Y8784628D01*
G01X61000000Y8800000D01*
G01X60843928Y8784628D01*
G01X60693853Y8739104D01*
G01X60555544Y8665176D01*
G01X60434315Y8565685D01*
G01X60334824Y8444456D01*
G01X60260896Y8306147D01*
G01X60215372Y8156072D01*
G01X60200000Y8000000D01*
G01X60215372Y7843928D01*
G01X60260896Y7693853D01*
G01X60334824Y7555544D01*
G01X60434315Y7434315D01*
G01X60555544Y7334824D01*
G01X60693853Y7260896D01*
G01X60843928Y7215372D01*
G01X61000000Y7200000D01*
G01X61156072Y7215372D01*
G01X61306147Y7260896D01*
G01X61444456Y7334824D01*
G01X61565685Y7434315D01*
G01X61665176Y7555544D01*
G01X61739104Y7693853D01*
G01X61784628Y7843928D01*
X61800000Y8000000D01*
G37*
G36*
X64340000Y38000000D02*
G01X64324628Y38156072D01*
G01X64279104Y38306147D01*
G01X64205176Y38444456D01*
G01X64105685Y38565685D01*
G01X63984456Y38665176D01*
G01X63846147Y38739104D01*
G01X63696072Y38784628D01*
G01X63540000Y38800000D01*
G01X63383928Y38784628D01*
G01X63233853Y38739104D01*
G01X63095544Y38665176D01*
G01X62974315Y38565685D01*
G01X62874824Y38444456D01*
G01X62800896Y38306147D01*
G01X62755372Y38156072D01*
G01X62740000Y38000000D01*
G01X62755372Y37843928D01*
G01X62800896Y37693853D01*
G01X62874824Y37555544D01*
G01X62974315Y37434315D01*
G01X63095544Y37334824D01*
G01X63233853Y37260896D01*
G01X63383928Y37215372D01*
G01X63540000Y37200000D01*
G01X63696072Y37215372D01*
G01X63846147Y37260896D01*
G01X63984456Y37334824D01*
G01X64105685Y37434315D01*
G01X64205176Y37555544D01*
G01X64279104Y37693853D01*
G01X64324628Y37843928D01*
X64340000Y38000000D01*
G37*
G36*
X61800000Y38000000D02*
G01X61784628Y38156072D01*
G01X61739104Y38306147D01*
G01X61665176Y38444456D01*
G01X61565685Y38565685D01*
G01X61444456Y38665176D01*
G01X61306147Y38739104D01*
G01X61156072Y38784628D01*
G01X61000000Y38800000D01*
G01X60843928Y38784628D01*
G01X60693853Y38739104D01*
G01X60555544Y38665176D01*
G01X60434315Y38565685D01*
G01X60334824Y38444456D01*
G01X60260896Y38306147D01*
G01X60215372Y38156072D01*
G01X60200000Y38000000D01*
G01X60215372Y37843928D01*
G01X60260896Y37693853D01*
G01X60334824Y37555544D01*
G01X60434315Y37434315D01*
G01X60555544Y37334824D01*
G01X60693853Y37260896D01*
G01X60843928Y37215372D01*
G01X61000000Y37200000D01*
G01X61156072Y37215372D01*
G01X61306147Y37260896D01*
G01X61444456Y37334824D01*
G01X61565685Y37434315D01*
G01X61665176Y37555544D01*
G01X61739104Y37693853D01*
G01X61784628Y37843928D01*
X61800000Y38000000D01*
G37*
G36*
X39300000Y38500000D02*
G01X39284628Y38656072D01*
G01X39239104Y38806147D01*
G01X39165176Y38944456D01*
G01X39065685Y39065685D01*
G01X38944456Y39165176D01*
G01X38806147Y39239104D01*
G01X38656072Y39284628D01*
G01X38500000Y39300000D01*
G01X38343928Y39284628D01*
G01X38193853Y39239104D01*
G01X38055544Y39165176D01*
G01X37934315Y39065685D01*
G01X37834824Y38944456D01*
G01X37760896Y38806147D01*
G01X37715372Y38656072D01*
G01X37700000Y38500000D01*
G01X37715372Y38343928D01*
G01X37760896Y38193853D01*
G01X37834824Y38055544D01*
G01X37934315Y37934315D01*
G01X38055544Y37834824D01*
G01X38193853Y37760896D01*
G01X38343928Y37715372D01*
G01X38500000Y37700000D01*
G01X38656072Y37715372D01*
G01X38806147Y37760896D01*
G01X38944456Y37834824D01*
G01X39065685Y37934315D01*
G01X39165176Y38055544D01*
G01X39239104Y38193853D01*
G01X39284628Y38343928D01*
X39300000Y38500000D01*
G37*
G36*
X39300000Y41500000D02*
G01X39284628Y41656072D01*
G01X39239104Y41806147D01*
G01X39165176Y41944456D01*
G01X39065685Y42065685D01*
G01X38944456Y42165176D01*
G01X38806147Y42239104D01*
G01X38656072Y42284628D01*
G01X38500000Y42300000D01*
G01X38343928Y42284628D01*
G01X38193853Y42239104D01*
G01X38055544Y42165176D01*
G01X37934315Y42065685D01*
G01X37834824Y41944456D01*
G01X37760896Y41806147D01*
G01X37715372Y41656072D01*
G01X37700000Y41500000D01*
G01X37715372Y41343928D01*
G01X37760896Y41193853D01*
G01X37834824Y41055544D01*
G01X37934315Y40934315D01*
G01X38055544Y40834824D01*
G01X38193853Y40760896D01*
G01X38343928Y40715372D01*
G01X38500000Y40700000D01*
G01X38656072Y40715372D01*
G01X38806147Y40760896D01*
G01X38944456Y40834824D01*
G01X39065685Y40934315D01*
G01X39165176Y41055544D01*
G01X39239104Y41193853D01*
G01X39284628Y41343928D01*
X39300000Y41500000D01*
G37*
G36*
X39300000Y44500000D02*
G01X39284628Y44656072D01*
G01X39239104Y44806147D01*
G01X39165176Y44944456D01*
G01X39065685Y45065685D01*
G01X38944456Y45165176D01*
G01X38806147Y45239104D01*
G01X38656072Y45284628D01*
G01X38500000Y45300000D01*
G01X38343928Y45284628D01*
G01X38193853Y45239104D01*
G01X38055544Y45165176D01*
G01X37934315Y45065685D01*
G01X37834824Y44944456D01*
G01X37760896Y44806147D01*
G01X37715372Y44656072D01*
G01X37700000Y44500000D01*
G01X37715372Y44343928D01*
G01X37760896Y44193853D01*
G01X37834824Y44055544D01*
G01X37934315Y43934315D01*
G01X38055544Y43834824D01*
G01X38193853Y43760896D01*
G01X38343928Y43715372D01*
G01X38500000Y43700000D01*
G01X38656072Y43715372D01*
G01X38806147Y43760896D01*
G01X38944456Y43834824D01*
G01X39065685Y43934315D01*
G01X39165176Y44055544D01*
G01X39239104Y44193853D01*
G01X39284628Y44343928D01*
X39300000Y44500000D01*
G37*
G36*
X39300000Y47500000D02*
G01X39284628Y47656072D01*
G01X39239104Y47806147D01*
G01X39165176Y47944456D01*
G01X39065685Y48065685D01*
G01X38944456Y48165176D01*
G01X38806147Y48239104D01*
G01X38656072Y48284628D01*
G01X38500000Y48300000D01*
G01X38343928Y48284628D01*
G01X38193853Y48239104D01*
G01X38055544Y48165176D01*
G01X37934315Y48065685D01*
G01X37834824Y47944456D01*
G01X37760896Y47806147D01*
G01X37715372Y47656072D01*
G01X37700000Y47500000D01*
G01X37715372Y47343928D01*
G01X37760896Y47193853D01*
G01X37834824Y47055544D01*
G01X37934315Y46934315D01*
G01X38055544Y46834824D01*
G01X38193853Y46760896D01*
G01X38343928Y46715372D01*
G01X38500000Y46700000D01*
G01X38656072Y46715372D01*
G01X38806147Y46760896D01*
G01X38944456Y46834824D01*
G01X39065685Y46934315D01*
G01X39165176Y47055544D01*
G01X39239104Y47193853D01*
G01X39284628Y47343928D01*
X39300000Y47500000D01*
G37*
G36*
X42300000Y38500000D02*
G01X42284628Y38656072D01*
G01X42239104Y38806147D01*
G01X42165176Y38944456D01*
G01X42065685Y39065685D01*
G01X41944456Y39165176D01*
G01X41806147Y39239104D01*
G01X41656072Y39284628D01*
G01X41500000Y39300000D01*
G01X41343928Y39284628D01*
G01X41193853Y39239104D01*
G01X41055544Y39165176D01*
G01X40934315Y39065685D01*
G01X40834824Y38944456D01*
G01X40760896Y38806147D01*
G01X40715372Y38656072D01*
G01X40700000Y38500000D01*
G01X40715372Y38343928D01*
G01X40760896Y38193853D01*
G01X40834824Y38055544D01*
G01X40934315Y37934315D01*
G01X41055544Y37834824D01*
G01X41193853Y37760896D01*
G01X41343928Y37715372D01*
G01X41500000Y37700000D01*
G01X41656072Y37715372D01*
G01X41806147Y37760896D01*
G01X41944456Y37834824D01*
G01X42065685Y37934315D01*
G01X42165176Y38055544D01*
G01X42239104Y38193853D01*
G01X42284628Y38343928D01*
X42300000Y38500000D01*
G37*
G36*
X42300000Y41500000D02*
G01X42284628Y41656072D01*
G01X42239104Y41806147D01*
G01X42165176Y41944456D01*
G01X42065685Y42065685D01*
G01X41944456Y42165176D01*
G01X41806147Y42239104D01*
G01X41656072Y42284628D01*
G01X41500000Y42300000D01*
G01X41343928Y42284628D01*
G01X41193853Y42239104D01*
G01X41055544Y42165176D01*
G01X40934315Y42065685D01*
G01X40834824Y41944456D01*
G01X40760896Y41806147D01*
G01X40715372Y41656072D01*
G01X40700000Y41500000D01*
G01X40715372Y41343928D01*
G01X40760896Y41193853D01*
G01X40834824Y41055544D01*
G01X40934315Y40934315D01*
G01X41055544Y40834824D01*
G01X41193853Y40760896D01*
G01X41343928Y40715372D01*
G01X41500000Y40700000D01*
G01X41656072Y40715372D01*
G01X41806147Y40760896D01*
G01X41944456Y40834824D01*
G01X42065685Y40934315D01*
G01X42165176Y41055544D01*
G01X42239104Y41193853D01*
G01X42284628Y41343928D01*
X42300000Y41500000D01*
G37*
G36*
X42300000Y44500000D02*
G01X42284628Y44656072D01*
G01X42239104Y44806147D01*
G01X42165176Y44944456D01*
G01X42065685Y45065685D01*
G01X41944456Y45165176D01*
G01X41806147Y45239104D01*
G01X41656072Y45284628D01*
G01X41500000Y45300000D01*
G01X41343928Y45284628D01*
G01X41193853Y45239104D01*
G01X41055544Y45165176D01*
G01X40934315Y45065685D01*
G01X40834824Y44944456D01*
G01X40760896Y44806147D01*
G01X40715372Y44656072D01*
G01X40700000Y44500000D01*
G01X40715372Y44343928D01*
G01X40760896Y44193853D01*
G01X40834824Y44055544D01*
G01X40934315Y43934315D01*
G01X41055544Y43834824D01*
G01X41193853Y43760896D01*
G01X41343928Y43715372D01*
G01X41500000Y43700000D01*
G01X41656072Y43715372D01*
G01X41806147Y43760896D01*
G01X41944456Y43834824D01*
G01X42065685Y43934315D01*
G01X42165176Y44055544D01*
G01X42239104Y44193853D01*
G01X42284628Y44343928D01*
X42300000Y44500000D01*
G37*
G36*
X42300000Y47500000D02*
G01X42284628Y47656072D01*
G01X42239104Y47806147D01*
G01X42165176Y47944456D01*
G01X42065685Y48065685D01*
G01X41944456Y48165176D01*
G01X41806147Y48239104D01*
G01X41656072Y48284628D01*
G01X41500000Y48300000D01*
G01X41343928Y48284628D01*
G01X41193853Y48239104D01*
G01X41055544Y48165176D01*
G01X40934315Y48065685D01*
G01X40834824Y47944456D01*
G01X40760896Y47806147D01*
G01X40715372Y47656072D01*
G01X40700000Y47500000D01*
G01X40715372Y47343928D01*
G01X40760896Y47193853D01*
G01X40834824Y47055544D01*
G01X40934315Y46934315D01*
G01X41055544Y46834824D01*
G01X41193853Y46760896D01*
G01X41343928Y46715372D01*
G01X41500000Y46700000D01*
G01X41656072Y46715372D01*
G01X41806147Y46760896D01*
G01X41944456Y46834824D01*
G01X42065685Y46934315D01*
G01X42165176Y47055544D01*
G01X42239104Y47193853D01*
G01X42284628Y47343928D01*
X42300000Y47500000D01*
G37*
G36*
X9070000Y28000000D02*
G01X9055589Y28146318D01*
G01X9012910Y28287013D01*
G01X8943602Y28416678D01*
G01X8850330Y28530330D01*
G01X8736678Y28623602D01*
G01X8607013Y28692910D01*
G01X8466318Y28735589D01*
G01X8320000Y28750000D01*
G01X8173682Y28735589D01*
G01X8032987Y28692910D01*
G01X7903322Y28623602D01*
G01X7789670Y28530330D01*
G01X7696398Y28416678D01*
G01X7627090Y28287013D01*
G01X7584411Y28146318D01*
G01X7570000Y28000000D01*
G01X7584411Y27853682D01*
G01X7627090Y27712987D01*
G01X7696398Y27583322D01*
G01X7789670Y27469670D01*
G01X7903322Y27376398D01*
G01X8032987Y27307090D01*
G01X8173682Y27264411D01*
G01X8320000Y27250000D01*
G01X8466318Y27264411D01*
G01X8607013Y27307090D01*
G01X8736678Y27376398D01*
G01X8850330Y27469670D01*
G01X8943602Y27583322D01*
G01X9012910Y27712987D01*
G01X9055589Y27853682D01*
X9070000Y28000000D01*
G37*
G36*
X49910000Y18000000D02*
G01X49901353Y18087791D01*
G01X49875746Y18172208D01*
G01X49834161Y18250007D01*
G01X49778198Y18318198D01*
G01X49710007Y18374161D01*
G01X49632208Y18415746D01*
G01X49547791Y18441353D01*
G01X49460000Y18450000D01*
G01X49372209Y18441353D01*
G01X49287792Y18415746D01*
G01X49209993Y18374161D01*
G01X49141802Y18318198D01*
G01X49085839Y18250007D01*
G01X49044254Y18172208D01*
G01X49018647Y18087791D01*
G01X49010000Y18000000D01*
G01X49018647Y17912209D01*
G01X49044254Y17827792D01*
G01X49085839Y17749993D01*
G01X49141802Y17681802D01*
G01X49209993Y17625839D01*
G01X49287792Y17584254D01*
G01X49372209Y17558647D01*
G01X49460000Y17550000D01*
G01X49547791Y17558647D01*
G01X49632208Y17584254D01*
G01X49710007Y17625839D01*
G01X49778198Y17681802D01*
G01X49834161Y17749993D01*
G01X49875746Y17827792D01*
G01X49901353Y17912209D01*
X49910000Y18000000D01*
G37*
G36*
X49910000Y22000000D02*
G01X49901353Y22087791D01*
G01X49875746Y22172208D01*
G01X49834161Y22250007D01*
G01X49778198Y22318198D01*
G01X49710007Y22374161D01*
G01X49632208Y22415746D01*
G01X49547791Y22441353D01*
G01X49460000Y22450000D01*
G01X49372209Y22441353D01*
G01X49287792Y22415746D01*
G01X49209993Y22374161D01*
G01X49141802Y22318198D01*
G01X49085839Y22250007D01*
G01X49044254Y22172208D01*
G01X49018647Y22087791D01*
G01X49010000Y22000000D01*
G01X49018647Y21912209D01*
G01X49044254Y21827792D01*
G01X49085839Y21749993D01*
G01X49141802Y21681802D01*
G01X49209993Y21625839D01*
G01X49287792Y21584254D01*
G01X49372209Y21558647D01*
G01X49460000Y21550000D01*
G01X49547791Y21558647D01*
G01X49632208Y21584254D01*
G01X49710007Y21625839D01*
G01X49778198Y21681802D01*
G01X49834161Y21749993D01*
G01X49875746Y21827792D01*
G01X49901353Y21912209D01*
X49910000Y22000000D01*
G37*
G36*
X49910000Y26000000D02*
G01X49901353Y26087791D01*
G01X49875746Y26172208D01*
G01X49834161Y26250007D01*
G01X49778198Y26318198D01*
G01X49710007Y26374161D01*
G01X49632208Y26415746D01*
G01X49547791Y26441353D01*
G01X49460000Y26450000D01*
G01X49372209Y26441353D01*
G01X49287792Y26415746D01*
G01X49209993Y26374161D01*
G01X49141802Y26318198D01*
G01X49085839Y26250007D01*
G01X49044254Y26172208D01*
G01X49018647Y26087791D01*
G01X49010000Y26000000D01*
G01X49018647Y25912209D01*
G01X49044254Y25827792D01*
G01X49085839Y25749993D01*
G01X49141802Y25681802D01*
G01X49209993Y25625839D01*
G01X49287792Y25584254D01*
G01X49372209Y25558647D01*
G01X49460000Y25550000D01*
G01X49547791Y25558647D01*
G01X49632208Y25584254D01*
G01X49710007Y25625839D01*
G01X49778198Y25681802D01*
G01X49834161Y25749993D01*
G01X49875746Y25827792D01*
G01X49901353Y25912209D01*
X49910000Y26000000D01*
G37*
G36*
X36910000Y24000000D02*
G01X36901353Y24087791D01*
G01X36875746Y24172208D01*
G01X36834161Y24250007D01*
G01X36778198Y24318198D01*
G01X36710007Y24374161D01*
G01X36632208Y24415746D01*
G01X36547791Y24441353D01*
G01X36460000Y24450000D01*
G01X36372209Y24441353D01*
G01X36287792Y24415746D01*
G01X36209993Y24374161D01*
G01X36141802Y24318198D01*
G01X36085839Y24250007D01*
G01X36044254Y24172208D01*
G01X36018647Y24087791D01*
G01X36010000Y24000000D01*
G01X36018647Y23912209D01*
G01X36044254Y23827792D01*
G01X36085839Y23749993D01*
G01X36141802Y23681802D01*
G01X36209993Y23625839D01*
G01X36287792Y23584254D01*
G01X36372209Y23558647D01*
G01X36460000Y23550000D01*
G01X36547791Y23558647D01*
G01X36632208Y23584254D01*
G01X36710007Y23625839D01*
G01X36778198Y23681802D01*
G01X36834161Y23749993D01*
G01X36875746Y23827792D01*
G01X36901353Y23912209D01*
X36910000Y24000000D01*
G37*
G36*
X39910000Y9000000D02*
G01X39901353Y9087791D01*
G01X39875746Y9172208D01*
G01X39834161Y9250007D01*
G01X39778198Y9318198D01*
G01X39710007Y9374161D01*
G01X39632208Y9415746D01*
G01X39547791Y9441353D01*
G01X39460000Y9450000D01*
G01X39372209Y9441353D01*
G01X39287792Y9415746D01*
G01X39209993Y9374161D01*
G01X39141802Y9318198D01*
G01X39085839Y9250007D01*
G01X39044254Y9172208D01*
G01X39018647Y9087791D01*
G01X39010000Y9000000D01*
G01X39018647Y8912209D01*
G01X39044254Y8827792D01*
G01X39085839Y8749993D01*
G01X39141802Y8681802D01*
G01X39209993Y8625839D01*
G01X39287792Y8584254D01*
G01X39372209Y8558647D01*
G01X39460000Y8550000D01*
G01X39547791Y8558647D01*
G01X39632208Y8584254D01*
G01X39710007Y8625839D01*
G01X39778198Y8681802D01*
G01X39834161Y8749993D01*
G01X39875746Y8827792D01*
G01X39901353Y8912209D01*
X39910000Y9000000D01*
G37*
G36*
X49910000Y13000000D02*
G01X49901353Y13087791D01*
G01X49875746Y13172208D01*
G01X49834161Y13250007D01*
G01X49778198Y13318198D01*
G01X49710007Y13374161D01*
G01X49632208Y13415746D01*
G01X49547791Y13441353D01*
G01X49460000Y13450000D01*
G01X49372209Y13441353D01*
G01X49287792Y13415746D01*
G01X49209993Y13374161D01*
G01X49141802Y13318198D01*
G01X49085839Y13250007D01*
G01X49044254Y13172208D01*
G01X49018647Y13087791D01*
G01X49010000Y13000000D01*
G01X49018647Y12912209D01*
G01X49044254Y12827792D01*
G01X49085839Y12749993D01*
G01X49141802Y12681802D01*
G01X49209993Y12625839D01*
G01X49287792Y12584254D01*
G01X49372209Y12558647D01*
G01X49460000Y12550000D01*
G01X49547791Y12558647D01*
G01X49632208Y12584254D01*
G01X49710007Y12625839D01*
G01X49778198Y12681802D01*
G01X49834161Y12749993D01*
G01X49875746Y12827792D01*
G01X49901353Y12912209D01*
X49910000Y13000000D01*
G37*
G36*
X38990000Y35000000D02*
G01X38981353Y35087791D01*
G01X38955746Y35172208D01*
G01X38914161Y35250007D01*
G01X38858198Y35318198D01*
G01X38790007Y35374161D01*
G01X38712208Y35415746D01*
G01X38627791Y35441353D01*
G01X38540000Y35450000D01*
G01X38452209Y35441353D01*
G01X38367792Y35415746D01*
G01X38289993Y35374161D01*
G01X38221802Y35318198D01*
G01X38165839Y35250007D01*
G01X38124254Y35172208D01*
G01X38098647Y35087791D01*
G01X38090000Y35000000D01*
G01X38098647Y34912209D01*
G01X38124254Y34827792D01*
G01X38165839Y34749993D01*
G01X38221802Y34681802D01*
G01X38289993Y34625839D01*
G01X38367792Y34584254D01*
G01X38452209Y34558647D01*
G01X38540000Y34550000D01*
G01X38627791Y34558647D01*
G01X38712208Y34584254D01*
G01X38790007Y34625839D01*
G01X38858198Y34681802D01*
G01X38914161Y34749993D01*
G01X38955746Y34827792D01*
G01X38981353Y34912209D01*
X38990000Y35000000D01*
G37*
G36*
X39910000Y35000000D02*
G01X39901353Y35087791D01*
G01X39875746Y35172208D01*
G01X39834161Y35250007D01*
G01X39778198Y35318198D01*
G01X39710007Y35374161D01*
G01X39632208Y35415746D01*
G01X39547791Y35441353D01*
G01X39460000Y35450000D01*
G01X39372209Y35441353D01*
G01X39287792Y35415746D01*
G01X39209993Y35374161D01*
G01X39141802Y35318198D01*
G01X39085839Y35250007D01*
G01X39044254Y35172208D01*
G01X39018647Y35087791D01*
G01X39010000Y35000000D01*
G01X39018647Y34912209D01*
G01X39044254Y34827792D01*
G01X39085839Y34749993D01*
G01X39141802Y34681802D01*
G01X39209993Y34625839D01*
G01X39287792Y34584254D01*
G01X39372209Y34558647D01*
G01X39460000Y34550000D01*
G01X39547791Y34558647D01*
G01X39632208Y34584254D01*
G01X39710007Y34625839D01*
G01X39778198Y34681802D01*
G01X39834161Y34749993D01*
G01X39875746Y34827792D01*
G01X39901353Y34912209D01*
X39910000Y35000000D01*
G37*
G36*
X48990000Y31000000D02*
G01X48981353Y31087791D01*
G01X48955746Y31172208D01*
G01X48914161Y31250007D01*
G01X48858198Y31318198D01*
G01X48790007Y31374161D01*
G01X48712208Y31415746D01*
G01X48627791Y31441353D01*
G01X48540000Y31450000D01*
G01X48452209Y31441353D01*
G01X48367792Y31415746D01*
G01X48289993Y31374161D01*
G01X48221802Y31318198D01*
G01X48165839Y31250007D01*
G01X48124254Y31172208D01*
G01X48098647Y31087791D01*
G01X48090000Y31000000D01*
G01X48098647Y30912209D01*
G01X48124254Y30827792D01*
G01X48165839Y30749993D01*
G01X48221802Y30681802D01*
G01X48289993Y30625839D01*
G01X48367792Y30584254D01*
G01X48452209Y30558647D01*
G01X48540000Y30550000D01*
G01X48627791Y30558647D01*
G01X48712208Y30584254D01*
G01X48790007Y30625839D01*
G01X48858198Y30681802D01*
G01X48914161Y30749993D01*
G01X48955746Y30827792D01*
G01X48981353Y30912209D01*
X48990000Y31000000D01*
G37*
G36*
X49910000Y31000000D02*
G01X49901353Y31087791D01*
G01X49875746Y31172208D01*
G01X49834161Y31250007D01*
G01X49778198Y31318198D01*
G01X49710007Y31374161D01*
G01X49632208Y31415746D01*
G01X49547791Y31441353D01*
G01X49460000Y31450000D01*
G01X49372209Y31441353D01*
G01X49287792Y31415746D01*
G01X49209993Y31374161D01*
G01X49141802Y31318198D01*
G01X49085839Y31250007D01*
G01X49044254Y31172208D01*
G01X49018647Y31087791D01*
G01X49010000Y31000000D01*
G01X49018647Y30912209D01*
G01X49044254Y30827792D01*
G01X49085839Y30749993D01*
G01X49141802Y30681802D01*
G01X49209993Y30625839D01*
G01X49287792Y30584254D01*
G01X49372209Y30558647D01*
G01X49460000Y30550000D01*
G01X49547791Y30558647D01*
G01X49632208Y30584254D01*
G01X49710007Y30625839D01*
G01X49778198Y30681802D01*
G01X49834161Y30749993D01*
G01X49875746Y30827792D01*
G01X49901353Y30912209D01*
X49910000Y31000000D01*
G37*
G36*
X7990000Y25000000D02*
G01X7981353Y25087791D01*
G01X7955746Y25172208D01*
G01X7914161Y25250007D01*
G01X7858198Y25318198D01*
G01X7790007Y25374161D01*
G01X7712208Y25415746D01*
G01X7627791Y25441353D01*
G01X7540000Y25450000D01*
G01X7452209Y25441353D01*
G01X7367792Y25415746D01*
G01X7289993Y25374161D01*
G01X7221802Y25318198D01*
G01X7165839Y25250007D01*
G01X7124254Y25172208D01*
G01X7098647Y25087791D01*
G01X7090000Y25000000D01*
G01X7098647Y24912209D01*
G01X7124254Y24827792D01*
G01X7165839Y24749993D01*
G01X7221802Y24681802D01*
G01X7289993Y24625839D01*
G01X7367792Y24584254D01*
G01X7452209Y24558647D01*
G01X7540000Y24550000D01*
G01X7627791Y24558647D01*
G01X7712208Y24584254D01*
G01X7790007Y24625839D01*
G01X7858198Y24681802D01*
G01X7914161Y24749993D01*
G01X7955746Y24827792D01*
G01X7981353Y24912209D01*
X7990000Y25000000D01*
G37*
G36*
X8910000Y25000000D02*
G01X8901353Y25087791D01*
G01X8875746Y25172208D01*
G01X8834161Y25250007D01*
G01X8778198Y25318198D01*
G01X8710007Y25374161D01*
G01X8632208Y25415746D01*
G01X8547791Y25441353D01*
G01X8460000Y25450000D01*
G01X8372209Y25441353D01*
G01X8287792Y25415746D01*
G01X8209993Y25374161D01*
G01X8141802Y25318198D01*
G01X8085839Y25250007D01*
G01X8044254Y25172208D01*
G01X8018647Y25087791D01*
G01X8010000Y25000000D01*
G01X8018647Y24912209D01*
G01X8044254Y24827792D01*
G01X8085839Y24749993D01*
G01X8141802Y24681802D01*
G01X8209993Y24625839D01*
G01X8287792Y24584254D01*
G01X8372209Y24558647D01*
G01X8460000Y24550000D01*
G01X8547791Y24558647D01*
G01X8632208Y24584254D01*
G01X8710007Y24625839D01*
G01X8778198Y24681802D01*
G01X8834161Y24749993D01*
G01X8875746Y24827792D01*
G01X8901353Y24912209D01*
X8910000Y25000000D01*
G37*
G36*
X42910000Y22000000D02*
G01X42901353Y22087791D01*
G01X42875746Y22172208D01*
G01X42834161Y22250007D01*
G01X42778198Y22318198D01*
G01X42710007Y22374161D01*
G01X42632208Y22415746D01*
G01X42547791Y22441353D01*
G01X42460000Y22450000D01*
G01X42372209Y22441353D01*
G01X42287792Y22415746D01*
G01X42209993Y22374161D01*
G01X42141802Y22318198D01*
G01X42085839Y22250007D01*
G01X42044254Y22172208D01*
G01X42018647Y22087791D01*
G01X42010000Y22000000D01*
G01X42018647Y21912209D01*
G01X42044254Y21827792D01*
G01X42085839Y21749993D01*
G01X42141802Y21681802D01*
G01X42209993Y21625839D01*
G01X42287792Y21584254D01*
G01X42372209Y21558647D01*
G01X42460000Y21550000D01*
G01X42547791Y21558647D01*
G01X42632208Y21584254D01*
G01X42710007Y21625839D01*
G01X42778198Y21681802D01*
G01X42834161Y21749993D01*
G01X42875746Y21827792D01*
G01X42901353Y21912209D01*
X42910000Y22000000D01*
G37*
G36*
X8250000Y36000000D02*
G01X8241353Y36087791D01*
G01X8215746Y36172208D01*
G01X8174161Y36250007D01*
G01X8118198Y36318198D01*
G01X8050007Y36374161D01*
G01X7972208Y36415746D01*
G01X7887791Y36441353D01*
G01X7800000Y36450000D01*
G01X7712209Y36441353D01*
G01X7627792Y36415746D01*
G01X7549993Y36374161D01*
G01X7481802Y36318198D01*
G01X7425839Y36250007D01*
G01X7384254Y36172208D01*
G01X7358647Y36087791D01*
G01X7350000Y36000000D01*
G01X7358647Y35912209D01*
G01X7384254Y35827792D01*
G01X7425839Y35749993D01*
G01X7481802Y35681802D01*
G01X7549993Y35625839D01*
G01X7627792Y35584254D01*
G01X7712209Y35558647D01*
G01X7800000Y35550000D01*
G01X7887791Y35558647D01*
G01X7972208Y35584254D01*
G01X8050007Y35625839D01*
G01X8118198Y35681802D01*
G01X8174161Y35749993D01*
G01X8215746Y35827792D01*
G01X8241353Y35912209D01*
X8250000Y36000000D01*
G37*
G36*
X41250000Y38000000D02*
G01X41241353Y38087791D01*
G01X41215746Y38172208D01*
G01X41174161Y38250007D01*
G01X41118198Y38318198D01*
G01X41050007Y38374161D01*
G01X40972208Y38415746D01*
G01X40887791Y38441353D01*
G01X40800000Y38450000D01*
G01X40712209Y38441353D01*
G01X40627792Y38415746D01*
G01X40549993Y38374161D01*
G01X40481802Y38318198D01*
G01X40425839Y38250007D01*
G01X40384254Y38172208D01*
G01X40358647Y38087791D01*
G01X40350000Y38000000D01*
G01X40358647Y37912209D01*
G01X40384254Y37827792D01*
G01X40425839Y37749993D01*
G01X40481802Y37681802D01*
G01X40549993Y37625839D01*
G01X40627792Y37584254D01*
G01X40712209Y37558647D01*
G01X40800000Y37550000D01*
G01X40887791Y37558647D01*
G01X40972208Y37584254D01*
G01X41050007Y37625839D01*
G01X41118198Y37681802D01*
G01X41174161Y37749993D01*
G01X41215746Y37827792D01*
G01X41241353Y37912209D01*
X41250000Y38000000D01*
G37*
G36*
X21450000Y15500000D02*
G01X21441353Y15587791D01*
G01X21415746Y15672208D01*
G01X21374161Y15750007D01*
G01X21318198Y15818198D01*
G01X21250007Y15874161D01*
G01X21172208Y15915746D01*
G01X21087791Y15941353D01*
G01X21000000Y15950000D01*
G01X20912209Y15941353D01*
G01X20827792Y15915746D01*
G01X20749993Y15874161D01*
G01X20681802Y15818198D01*
G01X20625839Y15750007D01*
G01X20584254Y15672208D01*
G01X20558647Y15587791D01*
G01X20550000Y15500000D01*
G01X20558647Y15412209D01*
G01X20584254Y15327792D01*
G01X20625839Y15249993D01*
G01X20681802Y15181802D01*
G01X20749993Y15125839D01*
G01X20827792Y15084254D01*
G01X20912209Y15058647D01*
G01X21000000Y15050000D01*
G01X21087791Y15058647D01*
G01X21172208Y15084254D01*
G01X21250007Y15125839D01*
G01X21318198Y15181802D01*
G01X21374161Y15249993D01*
G01X21415746Y15327792D01*
G01X21441353Y15412209D01*
X21450000Y15500000D01*
G37*
G36*
X21450000Y18500000D02*
G01X21441353Y18587791D01*
G01X21415746Y18672208D01*
G01X21374161Y18750007D01*
G01X21318198Y18818198D01*
G01X21250007Y18874161D01*
G01X21172208Y18915746D01*
G01X21087791Y18941353D01*
G01X21000000Y18950000D01*
G01X20912209Y18941353D01*
G01X20827792Y18915746D01*
G01X20749993Y18874161D01*
G01X20681802Y18818198D01*
G01X20625839Y18750007D01*
G01X20584254Y18672208D01*
G01X20558647Y18587791D01*
G01X20550000Y18500000D01*
G01X20558647Y18412209D01*
G01X20584254Y18327792D01*
G01X20625839Y18249993D01*
G01X20681802Y18181802D01*
G01X20749993Y18125839D01*
G01X20827792Y18084254D01*
G01X20912209Y18058647D01*
G01X21000000Y18050000D01*
G01X21087791Y18058647D01*
G01X21172208Y18084254D01*
G01X21250007Y18125839D01*
G01X21318198Y18181802D01*
G01X21374161Y18249993D01*
G01X21415746Y18327792D01*
G01X21441353Y18412209D01*
X21450000Y18500000D01*
G37*
G36*
X21450000Y21500000D02*
G01X21441353Y21587791D01*
G01X21415746Y21672208D01*
G01X21374161Y21750007D01*
G01X21318198Y21818198D01*
G01X21250007Y21874161D01*
G01X21172208Y21915746D01*
G01X21087791Y21941353D01*
G01X21000000Y21950000D01*
G01X20912209Y21941353D01*
G01X20827792Y21915746D01*
G01X20749993Y21874161D01*
G01X20681802Y21818198D01*
G01X20625839Y21750007D01*
G01X20584254Y21672208D01*
G01X20558647Y21587791D01*
G01X20550000Y21500000D01*
G01X20558647Y21412209D01*
G01X20584254Y21327792D01*
G01X20625839Y21249993D01*
G01X20681802Y21181802D01*
G01X20749993Y21125839D01*
G01X20827792Y21084254D01*
G01X20912209Y21058647D01*
G01X21000000Y21050000D01*
G01X21087791Y21058647D01*
G01X21172208Y21084254D01*
G01X21250007Y21125839D01*
G01X21318198Y21181802D01*
G01X21374161Y21249993D01*
G01X21415746Y21327792D01*
G01X21441353Y21412209D01*
X21450000Y21500000D01*
G37*
G36*
X24450000Y15500000D02*
G01X24441353Y15587791D01*
G01X24415746Y15672208D01*
G01X24374161Y15750007D01*
G01X24318198Y15818198D01*
G01X24250007Y15874161D01*
G01X24172208Y15915746D01*
G01X24087791Y15941353D01*
G01X24000000Y15950000D01*
G01X23912209Y15941353D01*
G01X23827792Y15915746D01*
G01X23749993Y15874161D01*
G01X23681802Y15818198D01*
G01X23625839Y15750007D01*
G01X23584254Y15672208D01*
G01X23558647Y15587791D01*
G01X23550000Y15500000D01*
G01X23558647Y15412209D01*
G01X23584254Y15327792D01*
G01X23625839Y15249993D01*
G01X23681802Y15181802D01*
G01X23749993Y15125839D01*
G01X23827792Y15084254D01*
G01X23912209Y15058647D01*
G01X24000000Y15050000D01*
G01X24087791Y15058647D01*
G01X24172208Y15084254D01*
G01X24250007Y15125839D01*
G01X24318198Y15181802D01*
G01X24374161Y15249993D01*
G01X24415746Y15327792D01*
G01X24441353Y15412209D01*
X24450000Y15500000D01*
G37*
G36*
X24450000Y18500000D02*
G01X24441353Y18587791D01*
G01X24415746Y18672208D01*
G01X24374161Y18750007D01*
G01X24318198Y18818198D01*
G01X24250007Y18874161D01*
G01X24172208Y18915746D01*
G01X24087791Y18941353D01*
G01X24000000Y18950000D01*
G01X23912209Y18941353D01*
G01X23827792Y18915746D01*
G01X23749993Y18874161D01*
G01X23681802Y18818198D01*
G01X23625839Y18750007D01*
G01X23584254Y18672208D01*
G01X23558647Y18587791D01*
G01X23550000Y18500000D01*
G01X23558647Y18412209D01*
G01X23584254Y18327792D01*
G01X23625839Y18249993D01*
G01X23681802Y18181802D01*
G01X23749993Y18125839D01*
G01X23827792Y18084254D01*
G01X23912209Y18058647D01*
G01X24000000Y18050000D01*
G01X24087791Y18058647D01*
G01X24172208Y18084254D01*
G01X24250007Y18125839D01*
G01X24318198Y18181802D01*
G01X24374161Y18249993D01*
G01X24415746Y18327792D01*
G01X24441353Y18412209D01*
X24450000Y18500000D01*
G37*
G36*
X24450000Y21500000D02*
G01X24441353Y21587791D01*
G01X24415746Y21672208D01*
G01X24374161Y21750007D01*
G01X24318198Y21818198D01*
G01X24250007Y21874161D01*
G01X24172208Y21915746D01*
G01X24087791Y21941353D01*
G01X24000000Y21950000D01*
G01X23912209Y21941353D01*
G01X23827792Y21915746D01*
G01X23749993Y21874161D01*
G01X23681802Y21818198D01*
G01X23625839Y21750007D01*
G01X23584254Y21672208D01*
G01X23558647Y21587791D01*
G01X23550000Y21500000D01*
G01X23558647Y21412209D01*
G01X23584254Y21327792D01*
G01X23625839Y21249993D01*
G01X23681802Y21181802D01*
G01X23749993Y21125839D01*
G01X23827792Y21084254D01*
G01X23912209Y21058647D01*
G01X24000000Y21050000D01*
G01X24087791Y21058647D01*
G01X24172208Y21084254D01*
G01X24250007Y21125839D01*
G01X24318198Y21181802D01*
G01X24374161Y21249993D01*
G01X24415746Y21327792D01*
G01X24441353Y21412209D01*
X24450000Y21500000D01*
G37*
G36*
X27450000Y15500000D02*
G01X27441353Y15587791D01*
G01X27415746Y15672208D01*
G01X27374161Y15750007D01*
G01X27318198Y15818198D01*
G01X27250007Y15874161D01*
G01X27172208Y15915746D01*
G01X27087791Y15941353D01*
G01X27000000Y15950000D01*
G01X26912209Y15941353D01*
G01X26827792Y15915746D01*
G01X26749993Y15874161D01*
G01X26681802Y15818198D01*
G01X26625839Y15750007D01*
G01X26584254Y15672208D01*
G01X26558647Y15587791D01*
G01X26550000Y15500000D01*
G01X26558647Y15412209D01*
G01X26584254Y15327792D01*
G01X26625839Y15249993D01*
G01X26681802Y15181802D01*
G01X26749993Y15125839D01*
G01X26827792Y15084254D01*
G01X26912209Y15058647D01*
G01X27000000Y15050000D01*
G01X27087791Y15058647D01*
G01X27172208Y15084254D01*
G01X27250007Y15125839D01*
G01X27318198Y15181802D01*
G01X27374161Y15249993D01*
G01X27415746Y15327792D01*
G01X27441353Y15412209D01*
X27450000Y15500000D01*
G37*
G36*
X27450000Y18500000D02*
G01X27441353Y18587791D01*
G01X27415746Y18672208D01*
G01X27374161Y18750007D01*
G01X27318198Y18818198D01*
G01X27250007Y18874161D01*
G01X27172208Y18915746D01*
G01X27087791Y18941353D01*
G01X27000000Y18950000D01*
G01X26912209Y18941353D01*
G01X26827792Y18915746D01*
G01X26749993Y18874161D01*
G01X26681802Y18818198D01*
G01X26625839Y18750007D01*
G01X26584254Y18672208D01*
G01X26558647Y18587791D01*
G01X26550000Y18500000D01*
G01X26558647Y18412209D01*
G01X26584254Y18327792D01*
G01X26625839Y18249993D01*
G01X26681802Y18181802D01*
G01X26749993Y18125839D01*
G01X26827792Y18084254D01*
G01X26912209Y18058647D01*
G01X27000000Y18050000D01*
G01X27087791Y18058647D01*
G01X27172208Y18084254D01*
G01X27250007Y18125839D01*
G01X27318198Y18181802D01*
G01X27374161Y18249993D01*
G01X27415746Y18327792D01*
G01X27441353Y18412209D01*
X27450000Y18500000D01*
G37*
G36*
X27450000Y21500000D02*
G01X27441353Y21587791D01*
G01X27415746Y21672208D01*
G01X27374161Y21750007D01*
G01X27318198Y21818198D01*
G01X27250007Y21874161D01*
G01X27172208Y21915746D01*
G01X27087791Y21941353D01*
G01X27000000Y21950000D01*
G01X26912209Y21941353D01*
G01X26827792Y21915746D01*
G01X26749993Y21874161D01*
G01X26681802Y21818198D01*
G01X26625839Y21750007D01*
G01X26584254Y21672208D01*
G01X26558647Y21587791D01*
G01X26550000Y21500000D01*
G01X26558647Y21412209D01*
G01X26584254Y21327792D01*
G01X26625839Y21249993D01*
G01X26681802Y21181802D01*
G01X26749993Y21125839D01*
G01X26827792Y21084254D01*
G01X26912209Y21058647D01*
G01X27000000Y21050000D01*
G01X27087791Y21058647D01*
G01X27172208Y21084254D01*
G01X27250007Y21125839D01*
G01X27318198Y21181802D01*
G01X27374161Y21249993D01*
G01X27415746Y21327792D01*
G01X27441353Y21412209D01*
X27450000Y21500000D01*
G37*
G36*
X14450000Y38000000D02*
G01X14441353Y38087791D01*
G01X14415746Y38172208D01*
G01X14374161Y38250007D01*
G01X14318198Y38318198D01*
G01X14250007Y38374161D01*
G01X14172208Y38415746D01*
G01X14087791Y38441353D01*
G01X14000000Y38450000D01*
G01X13912209Y38441353D01*
G01X13827792Y38415746D01*
G01X13749993Y38374161D01*
G01X13681802Y38318198D01*
G01X13625839Y38250007D01*
G01X13584254Y38172208D01*
G01X13558647Y38087791D01*
G01X13550000Y38000000D01*
G01X13558647Y37912209D01*
G01X13584254Y37827792D01*
G01X13625839Y37749993D01*
G01X13681802Y37681802D01*
G01X13749993Y37625839D01*
G01X13827792Y37584254D01*
G01X13912209Y37558647D01*
G01X14000000Y37550000D01*
G01X14087791Y37558647D01*
G01X14172208Y37584254D01*
G01X14250007Y37625839D01*
G01X14318198Y37681802D01*
G01X14374161Y37749993D01*
G01X14415746Y37827792D01*
G01X14441353Y37912209D01*
X14450000Y38000000D01*
G37*
G36*
X16050000Y9610000D02*
G01X16041353Y9697791D01*
G01X16015746Y9782208D01*
G01X15974161Y9860007D01*
G01X15918198Y9928198D01*
G01X15850007Y9984161D01*
G01X15772208Y10025746D01*
G01X15687791Y10051353D01*
G01X15600000Y10060000D01*
G01X15512209Y10051353D01*
G01X15427792Y10025746D01*
G01X15349993Y9984161D01*
G01X15281802Y9928198D01*
G01X15225839Y9860007D01*
G01X15184254Y9782208D01*
G01X15158647Y9697791D01*
G01X15150000Y9610000D01*
G01X15158647Y9522209D01*
G01X15184254Y9437792D01*
G01X15225839Y9359993D01*
G01X15281802Y9291802D01*
G01X15349993Y9235839D01*
G01X15427792Y9194254D01*
G01X15512209Y9168647D01*
G01X15600000Y9160000D01*
G01X15687791Y9168647D01*
G01X15772208Y9194254D01*
G01X15850007Y9235839D01*
G01X15918198Y9291802D01*
G01X15974161Y9359993D01*
G01X16015746Y9437792D01*
G01X16041353Y9522209D01*
X16050000Y9610000D01*
G37*
G36*
X47150000Y13000000D02*
G01X47141353Y13087791D01*
G01X47115746Y13172208D01*
G01X47074161Y13250007D01*
G01X47018198Y13318198D01*
G01X46950007Y13374161D01*
G01X46872208Y13415746D01*
G01X46787791Y13441353D01*
G01X46700000Y13450000D01*
G01X46612209Y13441353D01*
G01X46527792Y13415746D01*
G01X46449993Y13374161D01*
G01X46381802Y13318198D01*
G01X46325839Y13250007D01*
G01X46284254Y13172208D01*
G01X46258647Y13087791D01*
G01X46250000Y13000000D01*
G01X46258647Y12912209D01*
G01X46284254Y12827792D01*
G01X46325839Y12749993D01*
G01X46381802Y12681802D01*
G01X46449993Y12625839D01*
G01X46527792Y12584254D01*
G01X46612209Y12558647D01*
G01X46700000Y12550000D01*
G01X46787791Y12558647D01*
G01X46872208Y12584254D01*
G01X46950007Y12625839D01*
G01X47018198Y12681802D01*
G01X47074161Y12749993D01*
G01X47115746Y12827792D01*
G01X47141353Y12912209D01*
X47150000Y13000000D01*
G37*
G36*
X41750000Y31000000D02*
G01X41741353Y31087791D01*
G01X41715746Y31172208D01*
G01X41674161Y31250007D01*
G01X41618198Y31318198D01*
G01X41550007Y31374161D01*
G01X41472208Y31415746D01*
G01X41387791Y31441353D01*
G01X41300000Y31450000D01*
G01X41212209Y31441353D01*
G01X41127792Y31415746D01*
G01X41049993Y31374161D01*
G01X40981802Y31318198D01*
G01X40925839Y31250007D01*
G01X40884254Y31172208D01*
G01X40858647Y31087791D01*
G01X40850000Y31000000D01*
G01X40858647Y30912209D01*
G01X40884254Y30827792D01*
G01X40925839Y30749993D01*
G01X40981802Y30681802D01*
G01X41049993Y30625839D01*
G01X41127792Y30584254D01*
G01X41212209Y30558647D01*
G01X41300000Y30550000D01*
G01X41387791Y30558647D01*
G01X41472208Y30584254D01*
G01X41550007Y30625839D01*
G01X41618198Y30681802D01*
G01X41674161Y30749993D01*
G01X41715746Y30827792D01*
G01X41741353Y30912209D01*
X41750000Y31000000D01*
G37*
G36*
X47150000Y31000000D02*
G01X47141353Y31087791D01*
G01X47115746Y31172208D01*
G01X47074161Y31250007D01*
G01X47018198Y31318198D01*
G01X46950007Y31374161D01*
G01X46872208Y31415746D01*
G01X46787791Y31441353D01*
G01X46700000Y31450000D01*
G01X46612209Y31441353D01*
G01X46527792Y31415746D01*
G01X46449993Y31374161D01*
G01X46381802Y31318198D01*
G01X46325839Y31250007D01*
G01X46284254Y31172208D01*
G01X46258647Y31087791D01*
G01X46250000Y31000000D01*
G01X46258647Y30912209D01*
G01X46284254Y30827792D01*
G01X46325839Y30749993D01*
G01X46381802Y30681802D01*
G01X46449993Y30625839D01*
G01X46527792Y30584254D01*
G01X46612209Y30558647D01*
G01X46700000Y30550000D01*
G01X46787791Y30558647D01*
G01X46872208Y30584254D01*
G01X46950007Y30625839D01*
G01X47018198Y30681802D01*
G01X47074161Y30749993D01*
G01X47115746Y30827792D01*
G01X47141353Y30912209D01*
X47150000Y31000000D01*
G37*
G36*
X62050000Y13905000D02*
G01X62041353Y13992791D01*
G01X62015746Y14077208D01*
G01X61974161Y14155007D01*
G01X61918198Y14223198D01*
G01X61850007Y14279161D01*
G01X61772208Y14320746D01*
G01X61687791Y14346353D01*
G01X61600000Y14355000D01*
G01X61512209Y14346353D01*
G01X61427792Y14320746D01*
G01X61349993Y14279161D01*
G01X61281802Y14223198D01*
G01X61225839Y14155007D01*
G01X61184254Y14077208D01*
G01X61158647Y13992791D01*
G01X61150000Y13905000D01*
G01X61158647Y13817209D01*
G01X61184254Y13732792D01*
G01X61225839Y13654993D01*
G01X61281802Y13586802D01*
G01X61349993Y13530839D01*
G01X61427792Y13489254D01*
G01X61512209Y13463647D01*
G01X61600000Y13455000D01*
G01X61687791Y13463647D01*
G01X61772208Y13489254D01*
G01X61850007Y13530839D01*
G01X61918198Y13586802D01*
G01X61974161Y13654993D01*
G01X62015746Y13732792D01*
G01X62041353Y13817209D01*
X62050000Y13905000D01*
G37*
G36*
X62050000Y10095000D02*
G01X62041353Y10182791D01*
G01X62015746Y10267208D01*
G01X61974161Y10345007D01*
G01X61918198Y10413198D01*
G01X61850007Y10469161D01*
G01X61772208Y10510746D01*
G01X61687791Y10536353D01*
G01X61600000Y10545000D01*
G01X61512209Y10536353D01*
G01X61427792Y10510746D01*
G01X61349993Y10469161D01*
G01X61281802Y10413198D01*
G01X61225839Y10345007D01*
G01X61184254Y10267208D01*
G01X61158647Y10182791D01*
G01X61150000Y10095000D01*
G01X61158647Y10007209D01*
G01X61184254Y9922792D01*
G01X61225839Y9844993D01*
G01X61281802Y9776802D01*
G01X61349993Y9720839D01*
G01X61427792Y9679254D01*
G01X61512209Y9653647D01*
G01X61600000Y9645000D01*
G01X61687791Y9653647D01*
G01X61772208Y9679254D01*
G01X61850007Y9720839D01*
G01X61918198Y9776802D01*
G01X61974161Y9844993D01*
G01X62015746Y9922792D01*
G01X62041353Y10007209D01*
X62050000Y10095000D01*
G37*
G36*
X62050000Y11365000D02*
G01X62041353Y11452791D01*
G01X62015746Y11537208D01*
G01X61974161Y11615007D01*
G01X61918198Y11683198D01*
G01X61850007Y11739161D01*
G01X61772208Y11780746D01*
G01X61687791Y11806353D01*
G01X61600000Y11815000D01*
G01X61512209Y11806353D01*
G01X61427792Y11780746D01*
G01X61349993Y11739161D01*
G01X61281802Y11683198D01*
G01X61225839Y11615007D01*
G01X61184254Y11537208D01*
G01X61158647Y11452791D01*
G01X61150000Y11365000D01*
G01X61158647Y11277209D01*
G01X61184254Y11192792D01*
G01X61225839Y11114993D01*
G01X61281802Y11046802D01*
G01X61349993Y10990839D01*
G01X61427792Y10949254D01*
G01X61512209Y10923647D01*
G01X61600000Y10915000D01*
G01X61687791Y10923647D01*
G01X61772208Y10949254D01*
G01X61850007Y10990839D01*
G01X61918198Y11046802D01*
G01X61974161Y11114993D01*
G01X62015746Y11192792D01*
G01X62041353Y11277209D01*
X62050000Y11365000D01*
G37*
G36*
X62050000Y34905000D02*
G01X62041353Y34992791D01*
G01X62015746Y35077208D01*
G01X61974161Y35155007D01*
G01X61918198Y35223198D01*
G01X61850007Y35279161D01*
G01X61772208Y35320746D01*
G01X61687791Y35346353D01*
G01X61600000Y35355000D01*
G01X61512209Y35346353D01*
G01X61427792Y35320746D01*
G01X61349993Y35279161D01*
G01X61281802Y35223198D01*
G01X61225839Y35155007D01*
G01X61184254Y35077208D01*
G01X61158647Y34992791D01*
G01X61150000Y34905000D01*
G01X61158647Y34817209D01*
G01X61184254Y34732792D01*
G01X61225839Y34654993D01*
G01X61281802Y34586802D01*
G01X61349993Y34530839D01*
G01X61427792Y34489254D01*
G01X61512209Y34463647D01*
G01X61600000Y34455000D01*
G01X61687791Y34463647D01*
G01X61772208Y34489254D01*
G01X61850007Y34530839D01*
G01X61918198Y34586802D01*
G01X61974161Y34654993D01*
G01X62015746Y34732792D01*
G01X62041353Y34817209D01*
X62050000Y34905000D01*
G37*
G36*
X62050000Y31095000D02*
G01X62041353Y31182791D01*
G01X62015746Y31267208D01*
G01X61974161Y31345007D01*
G01X61918198Y31413198D01*
G01X61850007Y31469161D01*
G01X61772208Y31510746D01*
G01X61687791Y31536353D01*
G01X61600000Y31545000D01*
G01X61512209Y31536353D01*
G01X61427792Y31510746D01*
G01X61349993Y31469161D01*
G01X61281802Y31413198D01*
G01X61225839Y31345007D01*
G01X61184254Y31267208D01*
G01X61158647Y31182791D01*
G01X61150000Y31095000D01*
G01X61158647Y31007209D01*
G01X61184254Y30922792D01*
G01X61225839Y30844993D01*
G01X61281802Y30776802D01*
G01X61349993Y30720839D01*
G01X61427792Y30679254D01*
G01X61512209Y30653647D01*
G01X61600000Y30645000D01*
G01X61687791Y30653647D01*
G01X61772208Y30679254D01*
G01X61850007Y30720839D01*
G01X61918198Y30776802D01*
G01X61974161Y30844993D01*
G01X62015746Y30922792D01*
G01X62041353Y31007209D01*
X62050000Y31095000D01*
G37*
G36*
X62050000Y32365000D02*
G01X62041353Y32452791D01*
G01X62015746Y32537208D01*
G01X61974161Y32615007D01*
G01X61918198Y32683198D01*
G01X61850007Y32739161D01*
G01X61772208Y32780746D01*
G01X61687791Y32806353D01*
G01X61600000Y32815000D01*
G01X61512209Y32806353D01*
G01X61427792Y32780746D01*
G01X61349993Y32739161D01*
G01X61281802Y32683198D01*
G01X61225839Y32615007D01*
G01X61184254Y32537208D01*
G01X61158647Y32452791D01*
G01X61150000Y32365000D01*
G01X61158647Y32277209D01*
G01X61184254Y32192792D01*
G01X61225839Y32114993D01*
G01X61281802Y32046802D01*
G01X61349993Y31990839D01*
G01X61427792Y31949254D01*
G01X61512209Y31923647D01*
G01X61600000Y31915000D01*
G01X61687791Y31923647D01*
G01X61772208Y31949254D01*
G01X61850007Y31990839D01*
G01X61918198Y32046802D01*
G01X61974161Y32114993D01*
G01X62015746Y32192792D01*
G01X62041353Y32277209D01*
X62050000Y32365000D01*
G37*
G36*
X2950000Y2500000D02*
G01X2941353Y2587791D01*
G01X2915746Y2672208D01*
G01X2874161Y2750007D01*
G01X2818198Y2818198D01*
G01X2750007Y2874161D01*
G01X2672208Y2915746D01*
G01X2587791Y2941353D01*
G01X2500000Y2950000D01*
G01X2412209Y2941353D01*
G01X2327792Y2915746D01*
G01X2249993Y2874161D01*
G01X2181802Y2818198D01*
G01X2125839Y2750007D01*
G01X2084254Y2672208D01*
G01X2058647Y2587791D01*
G01X2050000Y2500000D01*
G01X2058647Y2412209D01*
G01X2084254Y2327792D01*
G01X2125839Y2249993D01*
G01X2181802Y2181802D01*
G01X2249993Y2125839D01*
G01X2327792Y2084254D01*
G01X2412209Y2058647D01*
G01X2500000Y2050000D01*
G01X2587791Y2058647D01*
G01X2672208Y2084254D01*
G01X2750007Y2125839D01*
G01X2818198Y2181802D01*
G01X2874161Y2249993D01*
G01X2915746Y2327792D01*
G01X2941353Y2412209D01*
X2950000Y2500000D01*
G37*
G36*
X2950000Y8500000D02*
G01X2941353Y8587791D01*
G01X2915746Y8672208D01*
G01X2874161Y8750007D01*
G01X2818198Y8818198D01*
G01X2750007Y8874161D01*
G01X2672208Y8915746D01*
G01X2587791Y8941353D01*
G01X2500000Y8950000D01*
G01X2412209Y8941353D01*
G01X2327792Y8915746D01*
G01X2249993Y8874161D01*
G01X2181802Y8818198D01*
G01X2125839Y8750007D01*
G01X2084254Y8672208D01*
G01X2058647Y8587791D01*
G01X2050000Y8500000D01*
G01X2058647Y8412209D01*
G01X2084254Y8327792D01*
G01X2125839Y8249993D01*
G01X2181802Y8181802D01*
G01X2249993Y8125839D01*
G01X2327792Y8084254D01*
G01X2412209Y8058647D01*
G01X2500000Y8050000D01*
G01X2587791Y8058647D01*
G01X2672208Y8084254D01*
G01X2750007Y8125839D01*
G01X2818198Y8181802D01*
G01X2874161Y8249993D01*
G01X2915746Y8327792D01*
G01X2941353Y8412209D01*
X2950000Y8500000D01*
G37*
G36*
X2950000Y14500000D02*
G01X2941353Y14587791D01*
G01X2915746Y14672208D01*
G01X2874161Y14750007D01*
G01X2818198Y14818198D01*
G01X2750007Y14874161D01*
G01X2672208Y14915746D01*
G01X2587791Y14941353D01*
G01X2500000Y14950000D01*
G01X2412209Y14941353D01*
G01X2327792Y14915746D01*
G01X2249993Y14874161D01*
G01X2181802Y14818198D01*
G01X2125839Y14750007D01*
G01X2084254Y14672208D01*
G01X2058647Y14587791D01*
G01X2050000Y14500000D01*
G01X2058647Y14412209D01*
G01X2084254Y14327792D01*
G01X2125839Y14249993D01*
G01X2181802Y14181802D01*
G01X2249993Y14125839D01*
G01X2327792Y14084254D01*
G01X2412209Y14058647D01*
G01X2500000Y14050000D01*
G01X2587791Y14058647D01*
G01X2672208Y14084254D01*
G01X2750007Y14125839D01*
G01X2818198Y14181802D01*
G01X2874161Y14249993D01*
G01X2915746Y14327792D01*
G01X2941353Y14412209D01*
X2950000Y14500000D01*
G37*
G36*
X2950000Y20500000D02*
G01X2941353Y20587791D01*
G01X2915746Y20672208D01*
G01X2874161Y20750007D01*
G01X2818198Y20818198D01*
G01X2750007Y20874161D01*
G01X2672208Y20915746D01*
G01X2587791Y20941353D01*
G01X2500000Y20950000D01*
G01X2412209Y20941353D01*
G01X2327792Y20915746D01*
G01X2249993Y20874161D01*
G01X2181802Y20818198D01*
G01X2125839Y20750007D01*
G01X2084254Y20672208D01*
G01X2058647Y20587791D01*
G01X2050000Y20500000D01*
G01X2058647Y20412209D01*
G01X2084254Y20327792D01*
G01X2125839Y20249993D01*
G01X2181802Y20181802D01*
G01X2249993Y20125839D01*
G01X2327792Y20084254D01*
G01X2412209Y20058647D01*
G01X2500000Y20050000D01*
G01X2587791Y20058647D01*
G01X2672208Y20084254D01*
G01X2750007Y20125839D01*
G01X2818198Y20181802D01*
G01X2874161Y20249993D01*
G01X2915746Y20327792D01*
G01X2941353Y20412209D01*
X2950000Y20500000D01*
G37*
G36*
X2950000Y32500000D02*
G01X2941353Y32587791D01*
G01X2915746Y32672208D01*
G01X2874161Y32750007D01*
G01X2818198Y32818198D01*
G01X2750007Y32874161D01*
G01X2672208Y32915746D01*
G01X2587791Y32941353D01*
G01X2500000Y32950000D01*
G01X2412209Y32941353D01*
G01X2327792Y32915746D01*
G01X2249993Y32874161D01*
G01X2181802Y32818198D01*
G01X2125839Y32750007D01*
G01X2084254Y32672208D01*
G01X2058647Y32587791D01*
G01X2050000Y32500000D01*
G01X2058647Y32412209D01*
G01X2084254Y32327792D01*
G01X2125839Y32249993D01*
G01X2181802Y32181802D01*
G01X2249993Y32125839D01*
G01X2327792Y32084254D01*
G01X2412209Y32058647D01*
G01X2500000Y32050000D01*
G01X2587791Y32058647D01*
G01X2672208Y32084254D01*
G01X2750007Y32125839D01*
G01X2818198Y32181802D01*
G01X2874161Y32249993D01*
G01X2915746Y32327792D01*
G01X2941353Y32412209D01*
X2950000Y32500000D01*
G37*
G36*
X8950000Y2500000D02*
G01X8941353Y2587791D01*
G01X8915746Y2672208D01*
G01X8874161Y2750007D01*
G01X8818198Y2818198D01*
G01X8750007Y2874161D01*
G01X8672208Y2915746D01*
G01X8587791Y2941353D01*
G01X8500000Y2950000D01*
G01X8412209Y2941353D01*
G01X8327792Y2915746D01*
G01X8249993Y2874161D01*
G01X8181802Y2818198D01*
G01X8125839Y2750007D01*
G01X8084254Y2672208D01*
G01X8058647Y2587791D01*
G01X8050000Y2500000D01*
G01X8058647Y2412209D01*
G01X8084254Y2327792D01*
G01X8125839Y2249993D01*
G01X8181802Y2181802D01*
G01X8249993Y2125839D01*
G01X8327792Y2084254D01*
G01X8412209Y2058647D01*
G01X8500000Y2050000D01*
G01X8587791Y2058647D01*
G01X8672208Y2084254D01*
G01X8750007Y2125839D01*
G01X8818198Y2181802D01*
G01X8874161Y2249993D01*
G01X8915746Y2327792D01*
G01X8941353Y2412209D01*
X8950000Y2500000D01*
G37*
G36*
X14950000Y2500000D02*
G01X14941353Y2587791D01*
G01X14915746Y2672208D01*
G01X14874161Y2750007D01*
G01X14818198Y2818198D01*
G01X14750007Y2874161D01*
G01X14672208Y2915746D01*
G01X14587791Y2941353D01*
G01X14500000Y2950000D01*
G01X14412209Y2941353D01*
G01X14327792Y2915746D01*
G01X14249993Y2874161D01*
G01X14181802Y2818198D01*
G01X14125839Y2750007D01*
G01X14084254Y2672208D01*
G01X14058647Y2587791D01*
G01X14050000Y2500000D01*
G01X14058647Y2412209D01*
G01X14084254Y2327792D01*
G01X14125839Y2249993D01*
G01X14181802Y2181802D01*
G01X14249993Y2125839D01*
G01X14327792Y2084254D01*
G01X14412209Y2058647D01*
G01X14500000Y2050000D01*
G01X14587791Y2058647D01*
G01X14672208Y2084254D01*
G01X14750007Y2125839D01*
G01X14818198Y2181802D01*
G01X14874161Y2249993D01*
G01X14915746Y2327792D01*
G01X14941353Y2412209D01*
X14950000Y2500000D01*
G37*
G36*
X20950000Y2500000D02*
G01X20941353Y2587791D01*
G01X20915746Y2672208D01*
G01X20874161Y2750007D01*
G01X20818198Y2818198D01*
G01X20750007Y2874161D01*
G01X20672208Y2915746D01*
G01X20587791Y2941353D01*
G01X20500000Y2950000D01*
G01X20412209Y2941353D01*
G01X20327792Y2915746D01*
G01X20249993Y2874161D01*
G01X20181802Y2818198D01*
G01X20125839Y2750007D01*
G01X20084254Y2672208D01*
G01X20058647Y2587791D01*
G01X20050000Y2500000D01*
G01X20058647Y2412209D01*
G01X20084254Y2327792D01*
G01X20125839Y2249993D01*
G01X20181802Y2181802D01*
G01X20249993Y2125839D01*
G01X20327792Y2084254D01*
G01X20412209Y2058647D01*
G01X20500000Y2050000D01*
G01X20587791Y2058647D01*
G01X20672208Y2084254D01*
G01X20750007Y2125839D01*
G01X20818198Y2181802D01*
G01X20874161Y2249993D01*
G01X20915746Y2327792D01*
G01X20941353Y2412209D01*
X20950000Y2500000D01*
G37*
G36*
X26950000Y2500000D02*
G01X26941353Y2587791D01*
G01X26915746Y2672208D01*
G01X26874161Y2750007D01*
G01X26818198Y2818198D01*
G01X26750007Y2874161D01*
G01X26672208Y2915746D01*
G01X26587791Y2941353D01*
G01X26500000Y2950000D01*
G01X26412209Y2941353D01*
G01X26327792Y2915746D01*
G01X26249993Y2874161D01*
G01X26181802Y2818198D01*
G01X26125839Y2750007D01*
G01X26084254Y2672208D01*
G01X26058647Y2587791D01*
G01X26050000Y2500000D01*
G01X26058647Y2412209D01*
G01X26084254Y2327792D01*
G01X26125839Y2249993D01*
G01X26181802Y2181802D01*
G01X26249993Y2125839D01*
G01X26327792Y2084254D01*
G01X26412209Y2058647D01*
G01X26500000Y2050000D01*
G01X26587791Y2058647D01*
G01X26672208Y2084254D01*
G01X26750007Y2125839D01*
G01X26818198Y2181802D01*
G01X26874161Y2249993D01*
G01X26915746Y2327792D01*
G01X26941353Y2412209D01*
X26950000Y2500000D01*
G37*
G36*
X32950000Y2500000D02*
G01X32941353Y2587791D01*
G01X32915746Y2672208D01*
G01X32874161Y2750007D01*
G01X32818198Y2818198D01*
G01X32750007Y2874161D01*
G01X32672208Y2915746D01*
G01X32587791Y2941353D01*
G01X32500000Y2950000D01*
G01X32412209Y2941353D01*
G01X32327792Y2915746D01*
G01X32249993Y2874161D01*
G01X32181802Y2818198D01*
G01X32125839Y2750007D01*
G01X32084254Y2672208D01*
G01X32058647Y2587791D01*
G01X32050000Y2500000D01*
G01X32058647Y2412209D01*
G01X32084254Y2327792D01*
G01X32125839Y2249993D01*
G01X32181802Y2181802D01*
G01X32249993Y2125839D01*
G01X32327792Y2084254D01*
G01X32412209Y2058647D01*
G01X32500000Y2050000D01*
G01X32587791Y2058647D01*
G01X32672208Y2084254D01*
G01X32750007Y2125839D01*
G01X32818198Y2181802D01*
G01X32874161Y2249993D01*
G01X32915746Y2327792D01*
G01X32941353Y2412209D01*
X32950000Y2500000D01*
G37*
G36*
X38950000Y14500000D02*
G01X38941353Y14587791D01*
G01X38915746Y14672208D01*
G01X38874161Y14750007D01*
G01X38818198Y14818198D01*
G01X38750007Y14874161D01*
G01X38672208Y14915746D01*
G01X38587791Y14941353D01*
G01X38500000Y14950000D01*
G01X38412209Y14941353D01*
G01X38327792Y14915746D01*
G01X38249993Y14874161D01*
G01X38181802Y14818198D01*
G01X38125839Y14750007D01*
G01X38084254Y14672208D01*
G01X38058647Y14587791D01*
G01X38050000Y14500000D01*
G01X38058647Y14412209D01*
G01X38084254Y14327792D01*
G01X38125839Y14249993D01*
G01X38181802Y14181802D01*
G01X38249993Y14125839D01*
G01X38327792Y14084254D01*
G01X38412209Y14058647D01*
G01X38500000Y14050000D01*
G01X38587791Y14058647D01*
G01X38672208Y14084254D01*
G01X38750007Y14125839D01*
G01X38818198Y14181802D01*
G01X38874161Y14249993D01*
G01X38915746Y14327792D01*
G01X38941353Y14412209D01*
X38950000Y14500000D01*
G37*
G36*
X38950000Y26500000D02*
G01X38941353Y26587791D01*
G01X38915746Y26672208D01*
G01X38874161Y26750007D01*
G01X38818198Y26818198D01*
G01X38750007Y26874161D01*
G01X38672208Y26915746D01*
G01X38587791Y26941353D01*
G01X38500000Y26950000D01*
G01X38412209Y26941353D01*
G01X38327792Y26915746D01*
G01X38249993Y26874161D01*
G01X38181802Y26818198D01*
G01X38125839Y26750007D01*
G01X38084254Y26672208D01*
G01X38058647Y26587791D01*
G01X38050000Y26500000D01*
G01X38058647Y26412209D01*
G01X38084254Y26327792D01*
G01X38125839Y26249993D01*
G01X38181802Y26181802D01*
G01X38249993Y26125839D01*
G01X38327792Y26084254D01*
G01X38412209Y26058647D01*
G01X38500000Y26050000D01*
G01X38587791Y26058647D01*
G01X38672208Y26084254D01*
G01X38750007Y26125839D01*
G01X38818198Y26181802D01*
G01X38874161Y26249993D01*
G01X38915746Y26327792D01*
G01X38941353Y26412209D01*
X38950000Y26500000D01*
G37*
G36*
X38950000Y32500000D02*
G01X38941353Y32587791D01*
G01X38915746Y32672208D01*
G01X38874161Y32750007D01*
G01X38818198Y32818198D01*
G01X38750007Y32874161D01*
G01X38672208Y32915746D01*
G01X38587791Y32941353D01*
G01X38500000Y32950000D01*
G01X38412209Y32941353D01*
G01X38327792Y32915746D01*
G01X38249993Y32874161D01*
G01X38181802Y32818198D01*
G01X38125839Y32750007D01*
G01X38084254Y32672208D01*
G01X38058647Y32587791D01*
G01X38050000Y32500000D01*
G01X38058647Y32412209D01*
G01X38084254Y32327792D01*
G01X38125839Y32249993D01*
G01X38181802Y32181802D01*
G01X38249993Y32125839D01*
G01X38327792Y32084254D01*
G01X38412209Y32058647D01*
G01X38500000Y32050000D01*
G01X38587791Y32058647D01*
G01X38672208Y32084254D01*
G01X38750007Y32125839D01*
G01X38818198Y32181802D01*
G01X38874161Y32249993D01*
G01X38915746Y32327792D01*
G01X38941353Y32412209D01*
X38950000Y32500000D01*
G37*
G36*
X44950000Y20500000D02*
G01X44941353Y20587791D01*
G01X44915746Y20672208D01*
G01X44874161Y20750007D01*
G01X44818198Y20818198D01*
G01X44750007Y20874161D01*
G01X44672208Y20915746D01*
G01X44587791Y20941353D01*
G01X44500000Y20950000D01*
G01X44412209Y20941353D01*
G01X44327792Y20915746D01*
G01X44249993Y20874161D01*
G01X44181802Y20818198D01*
G01X44125839Y20750007D01*
G01X44084254Y20672208D01*
G01X44058647Y20587791D01*
G01X44050000Y20500000D01*
G01X44058647Y20412209D01*
G01X44084254Y20327792D01*
G01X44125839Y20249993D01*
G01X44181802Y20181802D01*
G01X44249993Y20125839D01*
G01X44327792Y20084254D01*
G01X44412209Y20058647D01*
G01X44500000Y20050000D01*
G01X44587791Y20058647D01*
G01X44672208Y20084254D01*
G01X44750007Y20125839D01*
G01X44818198Y20181802D01*
G01X44874161Y20249993D01*
G01X44915746Y20327792D01*
G01X44941353Y20412209D01*
X44950000Y20500000D01*
G37*
G36*
X50950000Y14500000D02*
G01X50941353Y14587791D01*
G01X50915746Y14672208D01*
G01X50874161Y14750007D01*
G01X50818198Y14818198D01*
G01X50750007Y14874161D01*
G01X50672208Y14915746D01*
G01X50587791Y14941353D01*
G01X50500000Y14950000D01*
G01X50412209Y14941353D01*
G01X50327792Y14915746D01*
G01X50249993Y14874161D01*
G01X50181802Y14818198D01*
G01X50125839Y14750007D01*
G01X50084254Y14672208D01*
G01X50058647Y14587791D01*
G01X50050000Y14500000D01*
G01X50058647Y14412209D01*
G01X50084254Y14327792D01*
G01X50125839Y14249993D01*
G01X50181802Y14181802D01*
G01X50249993Y14125839D01*
G01X50327792Y14084254D01*
G01X50412209Y14058647D01*
G01X50500000Y14050000D01*
G01X50587791Y14058647D01*
G01X50672208Y14084254D01*
G01X50750007Y14125839D01*
G01X50818198Y14181802D01*
G01X50874161Y14249993D01*
G01X50915746Y14327792D01*
G01X50941353Y14412209D01*
X50950000Y14500000D01*
G37*
G36*
X50950000Y20500000D02*
G01X50941353Y20587791D01*
G01X50915746Y20672208D01*
G01X50874161Y20750007D01*
G01X50818198Y20818198D01*
G01X50750007Y20874161D01*
G01X50672208Y20915746D01*
G01X50587791Y20941353D01*
G01X50500000Y20950000D01*
G01X50412209Y20941353D01*
G01X50327792Y20915746D01*
G01X50249993Y20874161D01*
G01X50181802Y20818198D01*
G01X50125839Y20750007D01*
G01X50084254Y20672208D01*
G01X50058647Y20587791D01*
G01X50050000Y20500000D01*
G01X50058647Y20412209D01*
G01X50084254Y20327792D01*
G01X50125839Y20249993D01*
G01X50181802Y20181802D01*
G01X50249993Y20125839D01*
G01X50327792Y20084254D01*
G01X50412209Y20058647D01*
G01X50500000Y20050000D01*
G01X50587791Y20058647D01*
G01X50672208Y20084254D01*
G01X50750007Y20125839D01*
G01X50818198Y20181802D01*
G01X50874161Y20249993D01*
G01X50915746Y20327792D01*
G01X50941353Y20412209D01*
X50950000Y20500000D01*
G37*
G36*
X50950000Y32500000D02*
G01X50941353Y32587791D01*
G01X50915746Y32672208D01*
G01X50874161Y32750007D01*
G01X50818198Y32818198D01*
G01X50750007Y32874161D01*
G01X50672208Y32915746D01*
G01X50587791Y32941353D01*
G01X50500000Y32950000D01*
G01X50412209Y32941353D01*
G01X50327792Y32915746D01*
G01X50249993Y32874161D01*
G01X50181802Y32818198D01*
G01X50125839Y32750007D01*
G01X50084254Y32672208D01*
G01X50058647Y32587791D01*
G01X50050000Y32500000D01*
G01X50058647Y32412209D01*
G01X50084254Y32327792D01*
G01X50125839Y32249993D01*
G01X50181802Y32181802D01*
G01X50249993Y32125839D01*
G01X50327792Y32084254D01*
G01X50412209Y32058647D01*
G01X50500000Y32050000D01*
G01X50587791Y32058647D01*
G01X50672208Y32084254D01*
G01X50750007Y32125839D01*
G01X50818198Y32181802D01*
G01X50874161Y32249993D01*
G01X50915746Y32327792D01*
G01X50941353Y32412209D01*
X50950000Y32500000D01*
G37*
G36*
X62950000Y2500000D02*
G01X62941353Y2587791D01*
G01X62915746Y2672208D01*
G01X62874161Y2750007D01*
G01X62818198Y2818198D01*
G01X62750007Y2874161D01*
G01X62672208Y2915746D01*
G01X62587791Y2941353D01*
G01X62500000Y2950000D01*
G01X62412209Y2941353D01*
G01X62327792Y2915746D01*
G01X62249993Y2874161D01*
G01X62181802Y2818198D01*
G01X62125839Y2750007D01*
G01X62084254Y2672208D01*
G01X62058647Y2587791D01*
G01X62050000Y2500000D01*
G01X62058647Y2412209D01*
G01X62084254Y2327792D01*
G01X62125839Y2249993D01*
G01X62181802Y2181802D01*
G01X62249993Y2125839D01*
G01X62327792Y2084254D01*
G01X62412209Y2058647D01*
G01X62500000Y2050000D01*
G01X62587791Y2058647D01*
G01X62672208Y2084254D01*
G01X62750007Y2125839D01*
G01X62818198Y2181802D01*
G01X62874161Y2249993D01*
G01X62915746Y2327792D01*
G01X62941353Y2412209D01*
X62950000Y2500000D01*
G37*
G36*
X62950000Y20500000D02*
G01X62941353Y20587791D01*
G01X62915746Y20672208D01*
G01X62874161Y20750007D01*
G01X62818198Y20818198D01*
G01X62750007Y20874161D01*
G01X62672208Y20915746D01*
G01X62587791Y20941353D01*
G01X62500000Y20950000D01*
G01X62412209Y20941353D01*
G01X62327792Y20915746D01*
G01X62249993Y20874161D01*
G01X62181802Y20818198D01*
G01X62125839Y20750007D01*
G01X62084254Y20672208D01*
G01X62058647Y20587791D01*
G01X62050000Y20500000D01*
G01X62058647Y20412209D01*
G01X62084254Y20327792D01*
G01X62125839Y20249993D01*
G01X62181802Y20181802D01*
G01X62249993Y20125839D01*
G01X62327792Y20084254D01*
G01X62412209Y20058647D01*
G01X62500000Y20050000D01*
G01X62587791Y20058647D01*
G01X62672208Y20084254D01*
G01X62750007Y20125839D01*
G01X62818198Y20181802D01*
G01X62874161Y20249993D01*
G01X62915746Y20327792D01*
G01X62941353Y20412209D01*
X62950000Y20500000D01*
G37*
G36*
X62950000Y26500000D02*
G01X62941353Y26587791D01*
G01X62915746Y26672208D01*
G01X62874161Y26750007D01*
G01X62818198Y26818198D01*
G01X62750007Y26874161D01*
G01X62672208Y26915746D01*
G01X62587791Y26941353D01*
G01X62500000Y26950000D01*
G01X62412209Y26941353D01*
G01X62327792Y26915746D01*
G01X62249993Y26874161D01*
G01X62181802Y26818198D01*
G01X62125839Y26750007D01*
G01X62084254Y26672208D01*
G01X62058647Y26587791D01*
G01X62050000Y26500000D01*
G01X62058647Y26412209D01*
G01X62084254Y26327792D01*
G01X62125839Y26249993D01*
G01X62181802Y26181802D01*
G01X62249993Y26125839D01*
G01X62327792Y26084254D01*
G01X62412209Y26058647D01*
G01X62500000Y26050000D01*
G01X62587791Y26058647D01*
G01X62672208Y26084254D01*
G01X62750007Y26125839D01*
G01X62818198Y26181802D01*
G01X62874161Y26249993D01*
G01X62915746Y26327792D01*
G01X62941353Y26412209D01*
X62950000Y26500000D01*
G37*
G36*
X62950000Y44500000D02*
G01X62941353Y44587791D01*
G01X62915746Y44672208D01*
G01X62874161Y44750007D01*
G01X62818198Y44818198D01*
G01X62750007Y44874161D01*
G01X62672208Y44915746D01*
G01X62587791Y44941353D01*
G01X62500000Y44950000D01*
G01X62412209Y44941353D01*
G01X62327792Y44915746D01*
G01X62249993Y44874161D01*
G01X62181802Y44818198D01*
G01X62125839Y44750007D01*
G01X62084254Y44672208D01*
G01X62058647Y44587791D01*
G01X62050000Y44500000D01*
G01X62058647Y44412209D01*
G01X62084254Y44327792D01*
G01X62125839Y44249993D01*
G01X62181802Y44181802D01*
G01X62249993Y44125839D01*
G01X62327792Y44084254D01*
G01X62412209Y44058647D01*
G01X62500000Y44050000D01*
G01X62587791Y44058647D01*
G01X62672208Y44084254D01*
G01X62750007Y44125839D01*
G01X62818198Y44181802D01*
G01X62874161Y44249993D01*
G01X62915746Y44327792D01*
G01X62941353Y44412209D01*
X62950000Y44500000D01*
G37*
G36*
X68950000Y2500000D02*
G01X68941353Y2587791D01*
G01X68915746Y2672208D01*
G01X68874161Y2750007D01*
G01X68818198Y2818198D01*
G01X68750007Y2874161D01*
G01X68672208Y2915746D01*
G01X68587791Y2941353D01*
G01X68500000Y2950000D01*
G01X68412209Y2941353D01*
G01X68327792Y2915746D01*
G01X68249993Y2874161D01*
G01X68181802Y2818198D01*
G01X68125839Y2750007D01*
G01X68084254Y2672208D01*
G01X68058647Y2587791D01*
G01X68050000Y2500000D01*
G01X68058647Y2412209D01*
G01X68084254Y2327792D01*
G01X68125839Y2249993D01*
G01X68181802Y2181802D01*
G01X68249993Y2125839D01*
G01X68327792Y2084254D01*
G01X68412209Y2058647D01*
G01X68500000Y2050000D01*
G01X68587791Y2058647D01*
G01X68672208Y2084254D01*
G01X68750007Y2125839D01*
G01X68818198Y2181802D01*
G01X68874161Y2249993D01*
G01X68915746Y2327792D01*
G01X68941353Y2412209D01*
X68950000Y2500000D01*
G37*
G36*
X68950000Y8500000D02*
G01X68941353Y8587791D01*
G01X68915746Y8672208D01*
G01X68874161Y8750007D01*
G01X68818198Y8818198D01*
G01X68750007Y8874161D01*
G01X68672208Y8915746D01*
G01X68587791Y8941353D01*
G01X68500000Y8950000D01*
G01X68412209Y8941353D01*
G01X68327792Y8915746D01*
G01X68249993Y8874161D01*
G01X68181802Y8818198D01*
G01X68125839Y8750007D01*
G01X68084254Y8672208D01*
G01X68058647Y8587791D01*
G01X68050000Y8500000D01*
G01X68058647Y8412209D01*
G01X68084254Y8327792D01*
G01X68125839Y8249993D01*
G01X68181802Y8181802D01*
G01X68249993Y8125839D01*
G01X68327792Y8084254D01*
G01X68412209Y8058647D01*
G01X68500000Y8050000D01*
G01X68587791Y8058647D01*
G01X68672208Y8084254D01*
G01X68750007Y8125839D01*
G01X68818198Y8181802D01*
G01X68874161Y8249993D01*
G01X68915746Y8327792D01*
G01X68941353Y8412209D01*
X68950000Y8500000D01*
G37*
G36*
X68950000Y20500000D02*
G01X68941353Y20587791D01*
G01X68915746Y20672208D01*
G01X68874161Y20750007D01*
G01X68818198Y20818198D01*
G01X68750007Y20874161D01*
G01X68672208Y20915746D01*
G01X68587791Y20941353D01*
G01X68500000Y20950000D01*
G01X68412209Y20941353D01*
G01X68327792Y20915746D01*
G01X68249993Y20874161D01*
G01X68181802Y20818198D01*
G01X68125839Y20750007D01*
G01X68084254Y20672208D01*
G01X68058647Y20587791D01*
G01X68050000Y20500000D01*
G01X68058647Y20412209D01*
G01X68084254Y20327792D01*
G01X68125839Y20249993D01*
G01X68181802Y20181802D01*
G01X68249993Y20125839D01*
G01X68327792Y20084254D01*
G01X68412209Y20058647D01*
G01X68500000Y20050000D01*
G01X68587791Y20058647D01*
G01X68672208Y20084254D01*
G01X68750007Y20125839D01*
G01X68818198Y20181802D01*
G01X68874161Y20249993D01*
G01X68915746Y20327792D01*
G01X68941353Y20412209D01*
X68950000Y20500000D01*
G37*
G36*
X68950000Y26500000D02*
G01X68941353Y26587791D01*
G01X68915746Y26672208D01*
G01X68874161Y26750007D01*
G01X68818198Y26818198D01*
G01X68750007Y26874161D01*
G01X68672208Y26915746D01*
G01X68587791Y26941353D01*
G01X68500000Y26950000D01*
G01X68412209Y26941353D01*
G01X68327792Y26915746D01*
G01X68249993Y26874161D01*
G01X68181802Y26818198D01*
G01X68125839Y26750007D01*
G01X68084254Y26672208D01*
G01X68058647Y26587791D01*
G01X68050000Y26500000D01*
G01X68058647Y26412209D01*
G01X68084254Y26327792D01*
G01X68125839Y26249993D01*
G01X68181802Y26181802D01*
G01X68249993Y26125839D01*
G01X68327792Y26084254D01*
G01X68412209Y26058647D01*
G01X68500000Y26050000D01*
G01X68587791Y26058647D01*
G01X68672208Y26084254D01*
G01X68750007Y26125839D01*
G01X68818198Y26181802D01*
G01X68874161Y26249993D01*
G01X68915746Y26327792D01*
G01X68941353Y26412209D01*
X68950000Y26500000D01*
G37*
G36*
X68950000Y32500000D02*
G01X68941353Y32587791D01*
G01X68915746Y32672208D01*
G01X68874161Y32750007D01*
G01X68818198Y32818198D01*
G01X68750007Y32874161D01*
G01X68672208Y32915746D01*
G01X68587791Y32941353D01*
G01X68500000Y32950000D01*
G01X68412209Y32941353D01*
G01X68327792Y32915746D01*
G01X68249993Y32874161D01*
G01X68181802Y32818198D01*
G01X68125839Y32750007D01*
G01X68084254Y32672208D01*
G01X68058647Y32587791D01*
G01X68050000Y32500000D01*
G01X68058647Y32412209D01*
G01X68084254Y32327792D01*
G01X68125839Y32249993D01*
G01X68181802Y32181802D01*
G01X68249993Y32125839D01*
G01X68327792Y32084254D01*
G01X68412209Y32058647D01*
G01X68500000Y32050000D01*
G01X68587791Y32058647D01*
G01X68672208Y32084254D01*
G01X68750007Y32125839D01*
G01X68818198Y32181802D01*
G01X68874161Y32249993D01*
G01X68915746Y32327792D01*
G01X68941353Y32412209D01*
X68950000Y32500000D01*
G37*
G36*
X68950000Y44500000D02*
G01X68941353Y44587791D01*
G01X68915746Y44672208D01*
G01X68874161Y44750007D01*
G01X68818198Y44818198D01*
G01X68750007Y44874161D01*
G01X68672208Y44915746D01*
G01X68587791Y44941353D01*
G01X68500000Y44950000D01*
G01X68412209Y44941353D01*
G01X68327792Y44915746D01*
G01X68249993Y44874161D01*
G01X68181802Y44818198D01*
G01X68125839Y44750007D01*
G01X68084254Y44672208D01*
G01X68058647Y44587791D01*
G01X68050000Y44500000D01*
G01X68058647Y44412209D01*
G01X68084254Y44327792D01*
G01X68125839Y44249993D01*
G01X68181802Y44181802D01*
G01X68249993Y44125839D01*
G01X68327792Y44084254D01*
G01X68412209Y44058647D01*
G01X68500000Y44050000D01*
G01X68587791Y44058647D01*
G01X68672208Y44084254D01*
G01X68750007Y44125839D01*
G01X68818198Y44181802D01*
G01X68874161Y44249993D01*
G01X68915746Y44327792D01*
G01X68941353Y44412209D01*
X68950000Y44500000D01*
G37*
%LPD*%
D10*
X51000000Y39190000D03*
D11*
X48540000Y18000000D03*
X48540000Y22000000D03*
X48540000Y26000000D03*
X35540000Y24000000D03*
X38540000Y9000000D03*
X48540000Y13000000D03*
X41540000Y22000000D03*
X6200000Y36000000D03*
X39200000Y38000000D03*
X15600000Y10880000D03*
X41300000Y13000000D03*
M02*
