%FSLAX46Y46*%
%MOMM*%
%TF.FileFunction,Copper,L1,Top*%
%TF.FilePolarity,Positive*%
%TF.SameCoordinates,Original*%
%TF.CreationDate,2026-06-01T00:00:00Z*%
G04 TP-CAN-2I real copper - generated by generate_pcb.py*
G01*
G75*
%AMRR1*
21,1,0.50400,0.95000,0,0,0*
21,1,0.90000,0.55400,0,0,0*
1,1,0.39600,-0.25200,-0.27700*
1,1,0.39600,-0.25200,0.27700*
1,1,0.39600,0.25200,-0.27700*
1,1,0.39600,0.25200,0.27700*%
%AMRR2*
21,1,1.28600,0.60000,0,0,0*
21,1,1.55000,0.33600,0,0,0*
1,1,0.26400,-0.64300,-0.16800*
1,1,0.26400,-0.64300,0.16800*
1,1,0.26400,0.64300,-0.16800*
1,1,0.26400,0.64300,0.16800*%
%AMRR3*
21,1,0.33600,0.64000,0,0,0*
21,1,0.60000,0.37600,0,0,0*
1,1,0.26400,-0.16800,-0.18800*
1,1,0.26400,-0.16800,0.18800*
1,1,0.26400,0.16800,-0.18800*
1,1,0.26400,0.16800,0.18800*%
%AMRR4*
21,1,0.86000,1.00000,0,0,0*
21,1,1.30000,0.56000,0,0,0*
1,1,0.44000,-0.43000,-0.28000*
1,1,0.44000,-0.43000,0.28000*
1,1,0.44000,0.43000,-0.28000*
1,1,0.44000,0.43000,0.28000*%
%AMRR5*
21,1,0.56000,1.20000,0,0,0*
21,1,1.00000,0.76000,0,0,0*
1,1,0.44000,-0.28000,-0.38000*
1,1,0.44000,-0.28000,0.38000*
1,1,0.44000,0.28000,-0.38000*
1,1,0.44000,0.28000,0.38000*%
%AMRR6*
21,1,0.78400,2.40000,0,0,0*
21,1,1.40000,1.78400,0,0,0*
1,1,0.61600,-0.39200,-0.89200*
1,1,0.61600,-0.39200,0.89200*
1,1,0.61600,0.39200,-0.89200*
1,1,0.61600,0.39200,0.89200*%
%AMRR7*
21,1,1.17600,3.30000,0,0,0*
21,1,2.10000,2.37600,0,0,0*
1,1,0.92400,-0.58800,-1.18800*
1,1,0.92400,-0.58800,1.18800*
1,1,0.92400,0.58800,-1.18800*
1,1,0.92400,0.58800,1.18800*%
%AMRR8*
21,1,0.93600,0.60000,0,0,0*
21,1,1.20000,0.33600,0,0,0*
1,1,0.26400,-0.46800,-0.16800*
1,1,0.26400,-0.46800,0.16800*
1,1,0.26400,0.46800,-0.16800*
1,1,0.26400,0.46800,0.16800*%
%AMRR9*
21,1,0.83600,0.60000,0,0,0*
21,1,1.10000,0.33600,0,0,0*
1,1,0.26400,-0.41800,-0.16800*
1,1,0.26400,-0.41800,0.16800*
1,1,0.26400,0.41800,-0.16800*
1,1,0.26400,0.41800,0.16800*%
%AMRR10*
21,1,1.79200,3.40000,0,0,0*
21,1,3.20000,1.99200,0,0,0*
1,1,1.40800,-0.89600,-0.99600*
1,1,1.40800,-0.89600,0.99600*
1,1,1.40800,0.89600,-0.99600*
1,1,1.40800,0.89600,0.99600*%
%AMRR11*
21,1,1.34400,4.50000,0,0,0*
21,1,2.40000,3.44400,0,0,0*
1,1,1.05600,-0.67200,-1.72200*
1,1,1.05600,-0.67200,1.72200*
1,1,1.05600,0.67200,-1.72200*
1,1,1.05600,0.67200,1.72200*%
%AMRR12*
21,1,0.58800,1.80000,0,0,0*
21,1,1.05000,1.33800,0,0,0*
1,1,0.46200,-0.29400,-0.66900*
1,1,0.46200,-0.29400,0.66900*
1,1,0.46200,0.29400,-0.66900*
1,1,0.46200,0.29400,0.66900*%
%AMRR13*
21,1,0.64400,2.70000,0,0,0*
21,1,1.15000,2.19400,0,0,0*
1,1,0.50600,-0.32200,-1.09700*
1,1,0.50600,-0.32200,1.09700*
1,1,0.50600,0.32200,-1.09700*
1,1,0.50600,0.32200,1.09700*%
%AMRR14*
21,1,0.84000,2.50000,0,0,0*
21,1,1.50000,1.84000,0,0,0*
1,1,0.66000,-0.42000,-0.92000*
1,1,0.66000,-0.42000,0.92000*
1,1,0.66000,0.42000,-0.92000*
1,1,0.66000,0.42000,0.92000*%
%AMRR15*
21,1,0.56000,1.40000,0,0,0*
21,1,1.00000,0.96000,0,0,0*
1,1,0.44000,-0.28000,-0.48000*
1,1,0.44000,-0.28000,0.48000*
1,1,0.44000,0.28000,-0.48000*
1,1,0.44000,0.28000,0.48000*%
%AMRR16*
21,1,0.64400,1.45000,0,0,0*
21,1,1.15000,0.94400,0,0,0*
1,1,0.50600,-0.32200,-0.47200*
1,1,0.50600,-0.32200,0.47200*
1,1,0.50600,0.32200,-0.47200*
1,1,0.50600,0.32200,0.47200*%
%AMRR17*
21,1,1.34400,3.00000,0,0,0*
21,1,2.40000,1.94400,0,0,0*
1,1,1.05600,-0.67200,-0.97200*
1,1,1.05600,-0.67200,0.97200*
1,1,1.05600,0.67200,-0.97200*
1,1,1.05600,0.67200,0.97200*%
%AMRR18*
21,1,0.52400,0.40000,0,0,0*
21,1,0.70000,0.22400,0,0,0*
1,1,0.17600,-0.26200,-0.11200*
1,1,0.17600,-0.26200,0.11200*
1,1,0.17600,0.26200,-0.11200*
1,1,0.17600,0.26200,0.11200*%
%ADD10R,1.60000X0.90000*%
%ADD11R,0.90000X1.60000*%
%ADD12R,1.70000X1.70000*%
%ADD13R,1.10000X1.60000*%
%ADD14R,1.80000X1.80000*%
%ADD15C,1.80000*%
%ADD16RR1*%
%ADD17RR2*%
%ADD18R,1.20000X1.10000*%
%ADD19RR3*%
%ADD20RR4*%
%ADD21RR5*%
%ADD22RR6*%
%ADD23RR7*%
%ADD24RR8*%
%ADD25R,3.40000X4.00000*%
%ADD26RR9*%
%ADD27R,2.60000X3.20000*%
%ADD28RR10*%
%ADD29RR11*%
%ADD30RR12*%
%ADD31RR13*%
%ADD32RR14*%
%ADD33RR15*%
%ADD34RR16*%
%ADD35RR17*%
%ADD36R,0.30000X1.30000*%
%ADD37O,1.40000X1.40000*%
%ADD38RR18*%
%ADD39C,0.60000*%
%ADD40C,0.80000*%
%ADD41C,0.25000*%
%ADD42C,0.40000*%
D10*
X15600000Y9610000D03*
X15600000Y10880000D03*
X15600000Y12150000D03*
X15600000Y13420000D03*
X15600000Y14690000D03*
X15600000Y15960000D03*
X15600000Y17230000D03*
X15600000Y18500000D03*
X15600000Y19770000D03*
X15600000Y21040000D03*
X15600000Y22310000D03*
X15600000Y23580000D03*
X15600000Y24850000D03*
X15600000Y26120000D03*
X15600000Y27390000D03*
D11*
X18920000Y30650000D03*
X20190000Y30650000D03*
X21460000Y30650000D03*
X22730000Y30650000D03*
X24000000Y30650000D03*
X25270000Y30650000D03*
X26540000Y30650000D03*
X27810000Y30650000D03*
X29080000Y30650000D03*
D10*
X32400000Y27390000D03*
X32400000Y26120000D03*
X32400000Y24850000D03*
X32400000Y23580000D03*
X32400000Y22310000D03*
X32400000Y21040000D03*
X32400000Y19770000D03*
X32400000Y18500000D03*
X32400000Y17230000D03*
X32400000Y15960000D03*
X32400000Y14690000D03*
X32400000Y13420000D03*
X32400000Y12150000D03*
X32400000Y10880000D03*
X32400000Y9610000D03*
D12*
X21000000Y15500000D03*
X21000000Y18500000D03*
X21000000Y21500000D03*
X24000000Y15500000D03*
X24000000Y18500000D03*
X24000000Y21500000D03*
X27000000Y15500000D03*
X27000000Y18500000D03*
X27000000Y21500000D03*
D13*
X7750000Y9000000D03*
X14250000Y9000000D03*
X14250000Y5000000D03*
X7750000Y5000000D03*
X7750000Y16000000D03*
X14250000Y16000000D03*
X14250000Y12000000D03*
X7750000Y12000000D03*
D14*
X37810000Y34000000D03*
D15*
X35270000Y34000000D03*
X32730000Y34000000D03*
X30190000Y34000000D03*
D16*
X35200000Y3000000D03*
X36800000Y3000000D03*
X39200000Y3000000D03*
X40800000Y3000000D03*
X43200000Y3000000D03*
X44800000Y3000000D03*
X47200000Y3000000D03*
X48800000Y3000000D03*
X51200000Y3000000D03*
X52800000Y3000000D03*
D17*
X41300000Y16810000D03*
X41300000Y15540000D03*
X41300000Y14270000D03*
X41300000Y13000000D03*
X41300000Y11730000D03*
X41300000Y10460000D03*
X41300000Y9190000D03*
X46700000Y9190000D03*
X46700000Y10460000D03*
X46700000Y11730000D03*
X46700000Y13000000D03*
X46700000Y14270000D03*
X46700000Y15540000D03*
X46700000Y16810000D03*
X41300000Y34810000D03*
X41300000Y33540000D03*
X41300000Y32270000D03*
X41300000Y31000000D03*
X41300000Y29730000D03*
X41300000Y28460000D03*
X41300000Y27190000D03*
X46700000Y27190000D03*
X46700000Y28460000D03*
X46700000Y29730000D03*
X46700000Y31000000D03*
X46700000Y32270000D03*
X46700000Y33540000D03*
X46700000Y34810000D03*
D18*
X36900000Y22850000D03*
X39100000Y22850000D03*
X39100000Y21150000D03*
X36900000Y21150000D03*
D19*
X35040000Y22000000D03*
X35960000Y22000000D03*
X40040000Y22000000D03*
X40960000Y22000000D03*
D14*
X51000000Y2690000D03*
D15*
X51000000Y5230000D03*
X51000000Y7770000D03*
X51000000Y10310000D03*
D14*
X51000000Y39190000D03*
D15*
X51000000Y41730000D03*
X51000000Y44270000D03*
X51000000Y46810000D03*
D17*
X54400000Y13905000D03*
X54400000Y12635000D03*
X54400000Y11365000D03*
X54400000Y10095000D03*
X61600000Y10095000D03*
X61600000Y11365000D03*
X61600000Y12635000D03*
X61600000Y13905000D03*
X54400000Y34905000D03*
X54400000Y33635000D03*
X54400000Y32365000D03*
X54400000Y31095000D03*
X61600000Y31095000D03*
X61600000Y32365000D03*
X61600000Y33635000D03*
X61600000Y34905000D03*
D20*
X62950000Y13000000D03*
X62950000Y11000000D03*
X66050000Y11000000D03*
X66050000Y13000000D03*
X62950000Y34000000D03*
X62950000Y32000000D03*
X66050000Y32000000D03*
X66050000Y34000000D03*
D21*
X66050000Y19000000D03*
X67950000Y19000000D03*
X67000000Y17000000D03*
X66050000Y40000000D03*
X67950000Y40000000D03*
X67000000Y38000000D03*
D14*
X63540000Y8000000D03*
D15*
X61000000Y8000000D03*
X58460000Y8000000D03*
D14*
X63540000Y38000000D03*
D15*
X61000000Y38000000D03*
X58460000Y38000000D03*
D16*
X61700000Y15000000D03*
X63300000Y15000000D03*
X65700000Y15000000D03*
X67300000Y15000000D03*
X61700000Y30000000D03*
X63300000Y30000000D03*
X65700000Y30000000D03*
X67300000Y30000000D03*
X60200000Y12000000D03*
X61800000Y12000000D03*
X60200000Y42000000D03*
X61800000Y42000000D03*
D19*
X64040000Y16500000D03*
X64960000Y16500000D03*
X64040000Y28500000D03*
X64960000Y28500000D03*
D14*
X38500000Y38500000D03*
D15*
X38500000Y41500000D03*
X38500000Y44500000D03*
X38500000Y47500000D03*
X38500000Y50500000D03*
X38500000Y53500000D03*
X41500000Y38500000D03*
X41500000Y41500000D03*
X41500000Y44500000D03*
X41500000Y47500000D03*
X41500000Y50500000D03*
X41500000Y53500000D03*
D22*
X28800000Y47000000D03*
X33200000Y47000000D03*
D23*
X22900000Y44000000D03*
X29100000Y44000000D03*
D24*
X17800000Y47405000D03*
X17800000Y46135000D03*
X17800000Y44865000D03*
X17800000Y43595000D03*
X22200000Y43595000D03*
X22200000Y44865000D03*
X22200000Y46135000D03*
X22200000Y47405000D03*
D25*
X20000000Y45500000D03*
D26*
X12200000Y45950000D03*
X12200000Y45000000D03*
X12200000Y44050000D03*
X14800000Y44050000D03*
X14800000Y45000000D03*
X14800000Y45950000D03*
D17*
X11300000Y39905000D03*
X11300000Y38635000D03*
X11300000Y37365000D03*
X11300000Y36095000D03*
X16700000Y36095000D03*
X16700000Y37365000D03*
X16700000Y38635000D03*
X16700000Y39905000D03*
D27*
X14000000Y38000000D03*
D28*
X18300000Y39000000D03*
X27700000Y39000000D03*
D29*
X4400000Y39000000D03*
X11600000Y39000000D03*
D30*
X7300000Y33000000D03*
X10700000Y33000000D03*
D31*
X17300000Y33000000D03*
X20700000Y33000000D03*
X29300000Y36000000D03*
X32700000Y36000000D03*
D32*
X32900000Y39000000D03*
X37100000Y39000000D03*
D26*
X31700000Y41950000D03*
X31700000Y41000000D03*
X31700000Y40050000D03*
X34300000Y40050000D03*
X34300000Y41000000D03*
X34300000Y41950000D03*
D33*
X28800000Y45500000D03*
X31200000Y45500000D03*
D31*
X26300000Y38000000D03*
X29700000Y38000000D03*
D34*
X37025000Y43000000D03*
X38975000Y43000000D03*
D35*
X42200000Y40000000D03*
X47800000Y40000000D03*
D36*
X2750000Y28200000D03*
X2750000Y29000000D03*
X3250000Y28200000D03*
X3250000Y29000000D03*
X3750000Y28200000D03*
X3750000Y29000000D03*
X4250000Y28200000D03*
X4250000Y29000000D03*
X4750000Y28200000D03*
X4750000Y29000000D03*
X5250000Y28200000D03*
X5250000Y29000000D03*
D37*
X-320000Y28000000D03*
X8320000Y28000000D03*
X-320000Y29600000D03*
X8320000Y29600000D03*
D26*
X10200000Y23450000D03*
X10200000Y22500000D03*
X10200000Y21550000D03*
X12800000Y21550000D03*
X12800000Y22500000D03*
X12800000Y23450000D03*
D38*
X10500000Y29650000D03*
X10500000Y29000000D03*
X10500000Y28350000D03*
X12500000Y28350000D03*
X12500000Y29000000D03*
X12500000Y29650000D03*
D32*
X14400000Y31000000D03*
X18600000Y31000000D03*
D19*
X7540000Y20000000D03*
X8460000Y20000000D03*
X7540000Y30000000D03*
X8460000Y30000000D03*
D16*
X15200000Y25000000D03*
X16800000Y25000000D03*
D34*
X15025000Y35000000D03*
X16975000Y35000000D03*
X19025000Y35000000D03*
X20975000Y35000000D03*
D16*
X44200000Y47000000D03*
X45800000Y47000000D03*
X47200000Y47000000D03*
X48800000Y47000000D03*
X8200000Y44000000D03*
X9800000Y44000000D03*
X37200000Y47000000D03*
X38800000Y47000000D03*
X33200000Y30000000D03*
X34800000Y30000000D03*
X5200000Y44000000D03*
X6800000Y44000000D03*
X5200000Y47000000D03*
X6800000Y47000000D03*
X23200000Y47000000D03*
X24800000Y47000000D03*
X34200000Y47000000D03*
X35800000Y47000000D03*
X35200000Y6000000D03*
X36800000Y6000000D03*
X39200000Y6000000D03*
X40800000Y6000000D03*
X43200000Y6000000D03*
X44800000Y6000000D03*
X47200000Y6000000D03*
X48800000Y6000000D03*
X51200000Y6000000D03*
X52800000Y6000000D03*
X35200000Y12000000D03*
X36800000Y12000000D03*
X35200000Y16000000D03*
X36800000Y16000000D03*
X35200000Y28000000D03*
X36800000Y28000000D03*
X35200000Y32000000D03*
X36800000Y32000000D03*
D19*
X48540000Y18000000D03*
X49460000Y18000000D03*
X48540000Y22000000D03*
X49460000Y22000000D03*
X48540000Y26000000D03*
X49460000Y26000000D03*
X35540000Y24000000D03*
X36460000Y24000000D03*
X38540000Y9000000D03*
X39460000Y9000000D03*
X48540000Y13000000D03*
X49460000Y13000000D03*
X38540000Y35000000D03*
X39460000Y35000000D03*
X48540000Y31000000D03*
X49460000Y31000000D03*
X7540000Y25000000D03*
X8460000Y25000000D03*
X41540000Y22000000D03*
X42460000Y22000000D03*
X53540000Y9000000D03*
X54460000Y9000000D03*
X53540000Y40000000D03*
X54460000Y40000000D03*
D16*
X6200000Y36000000D03*
X7800000Y36000000D03*
X39200000Y38000000D03*
X40800000Y38000000D03*
X54200000Y14000000D03*
X55800000Y14000000D03*
X54200000Y35000000D03*
X55800000Y35000000D03*
D39*
X48540000Y18000000D03*
X49460000Y18000000D03*
X48540000Y22000000D03*
X49460000Y22000000D03*
X48540000Y26000000D03*
X49460000Y26000000D03*
X35540000Y24000000D03*
X36460000Y24000000D03*
X38540000Y9000000D03*
X39460000Y9000000D03*
X48540000Y13000000D03*
X49460000Y13000000D03*
X38540000Y35000000D03*
X39460000Y35000000D03*
X48540000Y31000000D03*
X49460000Y31000000D03*
X7540000Y25000000D03*
X8460000Y25000000D03*
X41540000Y22000000D03*
X42460000Y22000000D03*
X53540000Y9000000D03*
X54460000Y9000000D03*
X53540000Y40000000D03*
X54460000Y40000000D03*
X6200000Y36000000D03*
X7800000Y36000000D03*
X39200000Y38000000D03*
X40800000Y38000000D03*
X54200000Y14000000D03*
X55800000Y14000000D03*
X54200000Y35000000D03*
X55800000Y35000000D03*
X21000000Y15500000D03*
X21000000Y18500000D03*
X21000000Y21500000D03*
X24000000Y15500000D03*
X24000000Y18500000D03*
X24000000Y21500000D03*
X27000000Y15500000D03*
X27000000Y18500000D03*
X27000000Y21500000D03*
X14000000Y38000000D03*
X15600000Y10880000D03*
X15600000Y9610000D03*
X41300000Y13000000D03*
X46700000Y13000000D03*
X41300000Y31000000D03*
X46700000Y31000000D03*
X61600000Y13905000D03*
X61600000Y10095000D03*
X54400000Y11365000D03*
X61600000Y11365000D03*
X61600000Y34905000D03*
X61600000Y31095000D03*
X54400000Y32365000D03*
X61600000Y32365000D03*
X2500000Y2500000D03*
X2500000Y8500000D03*
X2500000Y14500000D03*
X2500000Y20500000D03*
X2500000Y32500000D03*
X8500000Y2500000D03*
X14500000Y2500000D03*
X20500000Y2500000D03*
X26500000Y2500000D03*
X32500000Y2500000D03*
X38500000Y14500000D03*
X38500000Y26500000D03*
X38500000Y32500000D03*
X44500000Y20500000D03*
X50500000Y14500000D03*
X50500000Y20500000D03*
X50500000Y32500000D03*
X62500000Y2500000D03*
X62500000Y20500000D03*
X62500000Y26500000D03*
X62500000Y44500000D03*
X68500000Y2500000D03*
X68500000Y8500000D03*
X68500000Y20500000D03*
X68500000Y26500000D03*
X68500000Y32500000D03*
X68500000Y44500000D03*
D40*
X38500000Y38500000D02*
X28800000Y47000000D01*
X33200000Y47000000D02*
X17800000Y47405000D01*
X22200000Y43595000D02*
X11300000Y39905000D01*
X16700000Y39905000D02*
X18300000Y39000000D01*
X27700000Y39000000D02*
X31700000Y40050000D01*
D39*
X31700000Y41950000D02*
X28800000Y45500000D01*
X31200000Y45500000D02*
X37810000Y34000000D01*
D41*
X5250000Y28200000D02*
X10200000Y23450000D01*
X10200000Y23450000D02*
X15600000Y24850000D01*
X10200000Y21550000D02*
X15600000Y26120000D01*
X32400000Y27390000D02*
X41300000Y16810000D01*
X32400000Y26120000D02*
X41300000Y15540000D01*
X32400000Y24850000D02*
X41300000Y14270000D01*
X32400000Y23580000D02*
X41300000Y9190000D01*
X32400000Y22310000D02*
X41300000Y34810000D01*
X32400000Y21040000D02*
X41300000Y33540000D01*
X32400000Y19770000D02*
X41300000Y32270000D01*
X32400000Y18500000D02*
X41300000Y27190000D01*
X36900000Y22850000D02*
X41300000Y11730000D01*
X41300000Y10460000D02*
X41300000Y29730000D01*
X46700000Y9190000D02*
X54400000Y13905000D01*
X46700000Y10460000D02*
X54400000Y12635000D01*
X46700000Y27190000D02*
X54400000Y34905000D01*
X46700000Y28460000D02*
X54400000Y33635000D01*
D42*
X61600000Y12635000D02*
X62950000Y13000000D01*
X61600000Y11365000D02*
X62950000Y11000000D01*
X66050000Y13000000D02*
X63540000Y8000000D01*
X66050000Y11000000D02*
X58460000Y8000000D01*
X63540000Y8000000D02*
X38500000Y47500000D01*
X58460000Y8000000D02*
X38500000Y50500000D01*
X61600000Y33635000D02*
X62950000Y34000000D01*
X61600000Y32365000D02*
X62950000Y32000000D01*
X66050000Y34000000D02*
X63540000Y38000000D01*
X66050000Y32000000D02*
X58460000Y38000000D01*
X63540000Y38000000D02*
X41500000Y38500000D01*
X58460000Y38000000D02*
X41500000Y41500000D01*
D41*
X20190000Y30650000D02*
X35270000Y34000000D01*
X21460000Y30650000D02*
X32730000Y34000000D01*
X35270000Y34000000D02*
X41500000Y47500000D01*
X32730000Y34000000D02*
X41500000Y50500000D01*
X36800000Y6000000D02*
X35200000Y3000000D01*
X40800000Y6000000D02*
X39200000Y3000000D01*
X44800000Y6000000D02*
X43200000Y3000000D01*
X48800000Y6000000D02*
X47200000Y3000000D01*
X52800000Y6000000D02*
X51200000Y3000000D01*
M02*
